<svg id="Group_3990" data-name="Group 3990" xmlns="http://www.w3.org/2000/svg" width="205.165" height="205.164" viewBox="0 0 205.165 205.164">
  <defs>
    <style>
      .cls-1 {
        fill: #f6f7f9;
      }

      .cls-2 {
        fill: #e8ebf0;
      }

      .cls-3 {
        fill: #d9dce3;
      }
    </style>
  </defs>
  <path id="Path_11259" data-name="Path 11259" class="cls-1" d="M113.5,159.11a90.253,90.253,0,0,1,117.684-8.617l.1-.1h18.564a102.573,102.573,0,1,0-145.061,145.06v-18.81A90.251,90.251,0,0,1,113.5,159.11" transform="translate(-74.75 -120.36)"/>
  <path id="Path_11260" data-name="Path 11260" class="cls-2" d="M170.06,138.757a.442.442,0,0,1,.1.084v-.181Z" transform="translate(-13.61 -108.606)"/>
  <path id="Path_11261" data-name="Path 11261" class="cls-3" d="M238.112,138.66v18.563h-.18a.436.436,0,0,1,.082.1l.1-.1-.1.1a90.267,90.267,0,0,1-126.17,126.4H93.05A102.573,102.573,0,1,0,238.112,138.66" transform="translate(-62.996 -108.606)"/>
  <path id="Path_11262" data-name="Path 11262" class="cls-1" d="M111.956,283.7,238,157.32a.441.441,0,0,0-.082-.1h.181V138.66l-8.7,8.714h-.016l-9.847,9.847L111.956,264.8l-10.192,10.192v.018l-8.714,8.7h18.906Z" transform="translate(-62.996 -108.606)"/>
  <path id="Path_11263" data-name="Path 11263" class="cls-3" d="M101.764,274.987l10.192-10.19L219.532,157.22l9.847-9.847h.016l8.7-8.713H219.532v.18a.4.4,0,0,0-.1-.084L93.05,264.8V283.7l8.714-8.7Z" transform="translate(-62.996 -108.606)"/>
  <path id="Path_11264" data-name="Path 11264" class="cls-2" d="M226.46,145.7h0A90.32,90.32,0,0,0,99.985,271.923v-.1Z" transform="translate(-69.931 -115.544)"/>
  <path id="Path_11265" data-name="Path 11265" class="cls-2" d="M104.5,276.5A90.321,90.321,0,0,0,230.745,150.03L104.615,276.5Z" transform="translate(-55.745 -101.407)"/>
</svg>
