<svg xmlns="http://www.w3.org/2000/svg" xmlns:xlink="http://www.w3.org/1999/xlink" width="205" height="85" viewBox="0 0 205 85">
  <defs>
    <style>
      .cls-1 {
        fill: none;
      }

      .cls-2 {
        clip-path: url(#clip-path);
      }

      .cls-3 {
        fill: #d73123;
      }

      .cls-4 {
        fill: #f93b2b;
      }

      .cls-5 {
        fill: #d8dbe2;
      }

      .cls-6 {
        fill: #e8ebf0;
      }

      .cls-7 {
        fill: #fff;
      }
    </style>
    <clipPath id="clip-path">
      <rect id="Rectangle_8247" data-name="Rectangle 8247" class="cls-1" width="205" height="85" transform="translate(-0.114 0.215)"/>
    </clipPath>
  </defs>
  <g id="Group_3993" data-name="Group 3993" transform="translate(0.114 -0.215)">
    <g id="Group_3992" data-name="Group 3992" class="cls-2" transform="translate(0 0)">
      <path id="Path_11266" data-name="Path 11266" class="cls-3" d="M.6,5.229C.488,5.566.425,5.9.316,6.239c.092-.292.246-.561.344-.858L.6,5.229" transform="translate(1.495 24.106)"/>
      <path id="Path_11267" data-name="Path 11267" class="cls-3" d="M17.979,11h0Z" transform="translate(84.805 50.706)"/>
      <path id="Path_11268" data-name="Path 11268" class="cls-3" d="M102.726,36.28H45.476v.006C25.076,36.28,7.175,23.7,1.643,5.515c-6.8,22.732,8.243,46.5,31.887,52.9a46.55,46.55,0,0,0,12.157,1.616h63.246a101.267,101.267,0,0,1-6.219-23.747Z" transform="translate(0.002 25.425)"/>
      <path id="Path_11269" data-name="Path 11269" class="cls-4" d="M44.152,61.71V61.7H101.4a166.016,166.016,0,0,1-1.966-25.89A152.666,152.666,0,0,1,103.392,0H44.152C24.251.011,6.814,12.017.83,29.492c-.1.292-.252.561-.344.858-.057.174-.149.331-.206.5l.04.09C5.851,49.132,23.752,61.7,44.152,61.71" transform="translate(1.325 0.001)"/>
      <path id="Path_11270" data-name="Path 11270" class="cls-5" d="M35.575,5.238h-.011c-.017.067-.052.123-.075.191.08.23.195.438.269.668-.075-.286-.1-.578-.183-.858" transform="translate(167.933 24.148)"/>
      <path id="Path_11271" data-name="Path 11271" class="cls-5" d="M119.065,5.533C113.534,23.67,95.811,36.2,75.605,36.2H17.936v0h-.017A101.948,101.948,0,0,0,24.138,59.95l.011.028H75.067C100.11,59.955,120.4,40.135,120.372,15.7a42.927,42.927,0,0,0-1.307-10.171" transform="translate(84.792 25.508)"/>
      <path id="Path_11272" data-name="Path 11272" class="cls-6" d="M120.53,30.238a3.393,3.393,0,0,1-.287-.673C114.339,12.061,97.029,0,77.253,0H21.539a150.969,150.969,0,0,0-3.955,35.792A170.448,170.448,0,0,0,19.533,61.71H77.253c20.177,0,37.888-12.51,43.448-30.687,0-.056.057-.112.057-.168-.057-.224-.172-.393-.229-.617m-52.218-7.63c-14.387,0-26.08-3.927-26.08-8.752,0-4.881,11.693-8.808,26.08-8.808s26.08,3.927,26.08,8.808c0,4.825-11.693,8.752-26.08,8.752" transform="translate(83.173 0.001)"/>
      <path id="Path_11273" data-name="Path 11273" class="cls-7" d="M74.039,9.708c0,4.825-11.693,8.752-26.08,8.752s-26.08-3.927-26.08-8.752C21.878,4.827,33.571.9,47.958.9s26.08,3.927,26.08,8.808" transform="translate(103.526 4.15)"/>
    </g>
  </g>
</svg>
