<svg xmlns="http://www.w3.org/2000/svg" xmlns:xlink="http://www.w3.org/1999/xlink" width="182" height="182" viewBox="0 0 182 182">
  <defs>
    <style>
      .cls-1 {
        fill: none;
      }

      .cls-2 {
        clip-path: url(#clip-path);
      }

      .cls-3 {
        fill: #e8ebf0;
      }

      .cls-4 {
        fill: #3abfed;
      }

      .cls-5 {
        fill: #9fe1f6;
      }

      .cls-6 {
        fill: #84dbf6;
      }

      .cls-7 {
        fill: #fefefe;
      }

      .cls-8 {
        fill: #fff;
      }
    </style>
    <clipPath id="clip-path">
      <rect id="Rectangle_8244" data-name="Rectangle 8244" class="cls-1" width="182" height="182" transform="translate(0.446 0.205)"/>
    </clipPath>
  </defs>
  <g id="Group_3988" data-name="Group 3988" transform="translate(-0.446 -0.205)">
    <g id="Group_3987" data-name="Group 3987" class="cls-2">
      <path id="Path_11247" data-name="Path 11247" class="cls-3" d="M14.906,312.347C5.294,315.086.693,321.226.062,328.11c-.524,5.719,2.276,12.167,7.24,15.033,15.817,9.129,28.593-8.825,44.957-.487,4.481,2.283,10.586,4.382,17.825,1.887,5.378-1.854,8.578-8.521,8.578-8.521a25.212,25.212,0,0,1-12.045.791c-7.062-1.351-8.078-5.065-14.175-7.607-12.74-5.313-19.711,4.5-28.106-.974-3.318-2.165-1.278-6.694-1.278-6.694l-8.152-9.19" transform="translate(0 -163.438)"/>
      <path id="Path_11248" data-name="Path 11248" class="cls-4" d="M227.519,13.549a41.931,41.931,0,0,0-3.058-3.42c-1.155-1.053-.71-1.658.235-2.463,2.464-2.1,4.875-4.261,7.3-6.411C232.426.869,232.8.42,233.208,0h.356c3.9,4.933,8.2,9.521,12.346,14.247q26.421,30.146,52.926,60.218c.89,1.01.934,1.587-.151,2.488-2.649,2.2-5.221,4.492-7.747,6.831-.838.776-1.228.675-1.939-.155a25.3,25.3,0,0,0-3.727-4.032,53.04,53.04,0,0,1-5.512-6q-5.885-6.667-11.744-13.359c-4.763-5.445-9.513-10.9-14.31-16.316-3.971-4.483-7.89-9.013-11.872-13.487-3.785-4.251-7.561-8.513-11.215-12.878-1.08-1.291-2.711-2.177-3.1-4.006" transform="translate(-117.134)"/>
      <path id="Path_11249" data-name="Path 11249" class="cls-5" d="M67.009,127.349c-.35-1.784.311-3.066,1.562-4.419,8.211-8.882,16.3-17.875,24.452-26.815,4.275-4.69,8.6-9.332,12.882-14.02,7.117-7.795,14.151-15.666,21.344-23.39,3.636-3.9,7-8.061,10.948-11.676.884-.256,1.31.443,1.736.943,4.542,5.329,9.253,10.508,13.837,15.8,3.729,4.3,7.52,8.555,11.276,12.836q5.984,6.824,11.972,13.645c3.565,4.055,7.165,8.078,10.661,12.193,1.458,1.716,1.438,1.953-.446,3.292q-12.773,9.086-25.507,18.227C145.842,135.332,129.9,146.619,114.022,158c-3.137,2.248-6.273,4.5-9.43,6.717a2.251,2.251,0,0,1-1.594.673c-2.2-1.476-3.648-3.695-5.353-5.637-5.783-6.593-11.6-13.161-17.367-19.764-4.094-4.684-8.238-9.322-12.307-14.092-.533.381-.065,1.392-.963,1.455" transform="translate(-35.027 -24.58)"/>
      <path id="Path_11250" data-name="Path 11250" class="cls-6" d="M142.5,155.411c2.938-1.542,5.464-3.7,8.161-5.587,7.069-4.957,14.033-10.063,21.055-15.087q17.821-12.75,35.663-25.472,9.389-6.7,18.8-13.364c1.9-1.342,1.958-1.349.438-3.1-4.965-5.714-9.969-11.394-14.947-17.1q-9.624-11.026-19.234-22.066-6.6-7.549-13.252-15.049a13.9,13.9,0,0,0-1.472-1.27,57.852,57.852,0,0,1,5.748-6.593c.627-.673,1.45-1.24,1.467-2.307,4.239,4.786,8.5,9.556,12.713,14.362,5.624,6.411,11.2,12.862,16.827,19.273,3.829,4.365,7.719,8.676,11.549,13.04q7.031,8.011,14,16.078c.923,1.067,2.189,1.865,2.664,3.3-3.729,3.119-7.808,5.763-11.752,8.587q-30.8,22.054-61.668,44c-6.418,4.579-12.811,9.193-19.238,13.759-.647.46-1.219,1.195-2.181,1.038a45.134,45.134,0,0,1-5.229-5.645.638.638,0,0,1-.114-.8" transform="translate(-74.54 -14.871)"/>
      <path id="Path_11251" data-name="Path 11251" class="cls-4" d="M101.208,250.572c1.622,2.281,3.893,4.023,5.343,6.446q-12.127-.667-24.253-1.33c-1.3-.071-2.6-.108-3.9-.161-1.974-.821-2.956-2.682-4.3-4.152-3.112-3.412-6.044-6.984-9.187-10.367a4.39,4.39,0,0,1-1.228-4.365q.773-11.92,1.547-23.841c.533-.671.127-1.515.524-2.519l35.451,40.289" transform="translate(-33.251 -110.032)"/>
      <path id="Path_11252" data-name="Path 11252" class="cls-5" d="M55.631,265.574c-.361,1.993.854,3.307,2.021,4.624q6.334,7.141,12.69,14.261c-2.568,2.068-5.4,3.863-7.136,6.8-.7.22-.93-.4-1.245-.756q-6.636-7.593-13.316-15.147c-.295-.336-.71-.676-.4-1.229,2.16-1.884,4.289-3.8,6.492-5.634.991-.823.219-2.068.894-2.918" transform="translate(-25.197 -138.964)"/>
      <path id="Path_11253" data-name="Path 11253" class="cls-5" d="M46.559,307.841c-1.913,2.195-4.374,3.792-6.4,5.859-.71.723-1.045.074-1.4-.327q-4.478-5.045-8.921-10.119A48.078,48.078,0,0,0,26.079,299c-1.385-1.242-.891-1.876.258-2.827a38.877,38.877,0,0,0,5.618-5.13c1.207.263,1.768,1.336,2.481,2.135,3.714,4.155,7.314,8.412,11.051,12.549.513.568,1.278,1.127,1.072,2.112" transform="translate(-13.211 -152.292)"/>
      <path id="Path_11254" data-name="Path 11254" class="cls-4" d="M50.7,299.933c-3.129-4.066-6.728-7.727-10.033-11.641-1.481-1.754-3.044-3.439-4.571-5.155-.76-.894-1.562-1.756-2.27-2.689a2.715,2.715,0,0,1,4.052-3.612c.875.868,1.683,1.8,2.521,2.709,2.728,3.159,5.445,6.327,8.188,9.472,2.241,2.569,4.515,5.109,6.775,7.661.549.62,1.129,1.214,1.638,1.864a2.8,2.8,0,0,1-.284,3.983,2.73,2.73,0,0,1-3.819-.308c-.763-.733-1.249-1.731-2.2-2.285" transform="translate(-17.349 -144.384)"/>
      <path id="Path_11255" data-name="Path 11255" class="cls-4" d="M199.3,148.417a27.643,27.643,0,1,1-27.73-27.684c15.988.01,27.574,12.51,27.73,27.684" transform="translate(-75.388 -63.174)"/>
      <path id="Path_11256" data-name="Path 11256" class="cls-7" d="M185.575,170.256c-.379.331-.69.594-.993.867-1.722,1.551-3.477,3.067-5.147,4.671-.794.763-1.311.927-2.11-.031-1.673-2.007-3.433-3.944-5.224-5.847-.71-.755-.871-1.181.065-1.938,1.846-1.492,3.514-3.2,5.34-4.721.945-.786.809-1.322.053-2.115-1.639-1.721-3.174-3.54-4.812-5.261-.631-.663-.69-1.036.06-1.681,2.028-1.741,4.011-3.539,5.927-5.4.893-.869,1.423-.667,2.142.174,1.506,1.761,3.124,3.425,4.632,5.184.681.794,1.145.933,1.971.122,1.694-1.664,3.524-3.188,5.269-4.8.688-.636,1.188-.749,1.885.061,1.781,2.072,3.628,4.089,5.5,6.081.659.7.533,1.131-.146,1.709-1.718,1.463-3.312,3.08-5.093,4.459-1.312,1.017-1.143,1.7-.071,2.754,1.519,1.5,2.82,3.218,4.318,4.741.869.883.681,1.4-.159,2.131-1.974,1.712-3.9,3.479-5.8,5.281-.721.686-1.164.705-1.83-.089-1.565-1.865-3.223-3.652-4.852-5.463-.268-.3-.578-.556-.926-.886" transform="translate(-89.781 -77.566)"/>
      <path id="Path_11257" data-name="Path 11257" class="cls-8" d="M10.764,328.36c-1.353,1.508-3.018,2.22-3.721,1.59s-.175-2.364,1.178-3.873,3.019-2.22,3.721-1.59.175,2.364-1.178,3.873" transform="translate(-3.524 -169.67)"/>
      <path id="Path_11258" data-name="Path 11258" class="cls-8" d="M96.206,348.171c-1.565-.258-2.756-.932-2.662-1.5s1.439-.827,3-.569,2.756.932,2.662,1.5-1.439.828-3,.569" transform="translate(-48.963 -181.046)"/>
    </g>
  </g>
</svg>
