<svg xmlns="http://www.w3.org/2000/svg" xmlns:xlink="http://www.w3.org/1999/xlink" width="154" height="188" viewBox="0 0 154 188">
  <defs>
    <style>
      .cls-1 {
        fill: none;
      }

      .cls-2 {
        fill: #efefef;
      }

      .cls-3 {
        fill: #fff;
      }

      .cls-4 {
        clip-path: url(#clip-path);
      }

      .cls-5 {
        fill: #e4646e;
      }

      .cls-6 {
        fill: #fe8086;
      }

      .cls-7 {
        fill: #bde6ad;
      }

      .cls-8 {
        fill: #b2e49e;
      }

      .cls-9 {
        fill: #94d5a3;
      }

      .cls-10 {
        fill: #fe8085;
      }

      .cls-11 {
        fill: #6a5d6a;
      }

      .cls-12 {
        fill: #7e707d;
      }
    </style>
    <clipPath id="clip-path">
      <rect id="Rectangle_8252" data-name="Rectangle 8252" class="cls-1" width="154" height="188" transform="translate(0.277 -0.399)"/>
    </clipPath>
  </defs>
  <g id="Group_3997" data-name="Group 3997" transform="translate(-0.276 0.399)">
    <rect id="Rectangle_8249" data-name="Rectangle 8249" class="cls-2" width="12.521" height="14.424" transform="translate(78.915 25.281)"/>
    <rect id="Rectangle_8250" data-name="Rectangle 8250" class="cls-3" width="35.573" height="14.424" transform="translate(44.31 25.281)"/>
    <rect id="Rectangle_8251" data-name="Rectangle 8251" class="cls-3" width="92.261" height="79.826" transform="translate(22.304 69.693)"/>
    <g id="Group_3996" data-name="Group 3996" transform="translate(0 0)">
      <g id="Group_3995" data-name="Group 3995" class="cls-4">
        <path id="Path_11274" data-name="Path 11274" class="cls-5" d="M44.261,26.347c5.345-.023,10.7-.074,16.041-.051,1.973.006,3.156,1.394,3.112,3.646C63.1,46.95,54.354,69.208,19.979,64.06c.144-1.052,1.039-1.03,1.73-1.24A34.43,34.43,0,0,0,35.356,55.2,32.234,32.234,0,0,0,45.14,36.944c.365-1.923.426-3.879.713-5.813A3.977,3.977,0,0,0,44.7,27.285a.973.973,0,0,1-.437-.939" transform="translate(90.454 123.254)"/>
        <path id="Path_11275" data-name="Path 11275" class="cls-6" d="M23.3,26.289q8.018.026,16.03.046,35.727.009,71.442,0c.951,0,1.9-.034,2.852-.057q9.485.026,18.97.063c.708,0,1.415.04,2.123.063a4.294,4.294,0,0,1,2.123,4.278c-.591,7.309-2.134,14.255-6.561,20.267A33.363,33.363,0,0,1,112.022,63.4a3,3,0,0,0-1.586.717,38.495,38.495,0,0,1-9.977-3.743c-3.455-1.2-5.671-3.908-7.705-6.792a19.067,19.067,0,0,1-2.6-5.808C88.525,42.131,87.3,41.21,81.5,41.21q-27.634,0-55.28-.006c-.995,0-2.04.193-2.924-.518-4.754-.017-9.507-.057-14.261-.046a13.236,13.236,0,0,1-3.35-.432c-4.079-1.052-6.1-3.97-5.616-8.049.392-3.3,3.394-5.762,7.186-5.8,5.351-.057,10.7-.051,16.046-.074" transform="translate(-0.003 123.198)"/>
        <path id="Path_11276" data-name="Path 11276" class="cls-7" d="M82.063,37.126q-14.866.026-29.738.04-24.044,0-48.089-.034c-.006-1.837.017-3.675-.022-5.512a10.981,10.981,0,0,1,3.842-8.879c5.892-5.222,11.729-10.512,17.588-15.774h34.69c.768.421.768.9.735,1.615a3.735,3.735,0,0,0,1.537,3.089c5.693,5.25,11.718,10.119,17.13,15.683a9.793,9.793,0,0,1,2.327,9.773" transform="translate(19.067 32.662)"/>
        <path id="Path_11277" data-name="Path 11277" class="cls-8" d="M4.214,28.853q23.166-.026,46.337-.046c4.632-.006,9.264-.017,13.9.028,3.372.028,5.715,1.5,6.428,4.67a23.661,23.661,0,0,0,10.5,15.034c-.713.034-1.421.1-2.134.1q-34.889.009-69.773,0c-4.14,0-5.251-1.155-5.251-5.466q0-7.159-.006-14.323" transform="translate(19.079 135.031)"/>
        <path id="Path_11278" data-name="Path 11278" class="cls-9" d="M22.934,23.693c1.553-2.452,3.1-4.909,4.66-7.349.586-.916,1.387-1.109,2-.154,5.207,8.14,11.049,15.927,14.145,25.3C47.078,51.577,41.694,61.059,31.5,62.857a15.011,15.011,0,0,1-10.674-1.746c-.055-.6.431-.683.79-.808,9.38-3.276,12.608-13.572,8.147-23.06A109.437,109.437,0,0,0,23.9,26.173a3.749,3.749,0,0,1-.967-2.48" transform="translate(94.253 72.944)"/>
        <path id="Path_11279" data-name="Path 11279" class="cls-8" d="M29.652,16.989c3.62,5.95,7.34,11.849,8.993,18.788,1.819,7.651-2.979,16.149-10.309,18.3a6.927,6.927,0,0,0-.8.33c-.343-.125-.68-.245-1.023-.37a16,16,0,0,1-6.694-9.465,18.219,18.219,0,0,1,.724-10.717,84.986,84.986,0,0,1,6.235-12.469q1.434-2.2,2.869-4.4" transform="translate(87.536 79.648)"/>
        <path id="Path_11280" data-name="Path 11280" class="cls-9" d="M35.821,37.131a22.154,22.154,0,0,0-.536-5.791c-.63-2.969-2.963-4.642-4.953-6.507-3.272-3.066-6.677-5.984-10.027-8.965-1.6-1.428-3.156-2.935-4.842-4.261-1.631-1.28-1.056-4.636-1.056-4.636l12.138-.006S38.474,17.717,44.471,23.047a10.3,10.3,0,0,1,3.538,7.85v6.286s-8.634-.04-12.188-.051" transform="translate(64.784 32.657)"/>
        <path id="Path_11281" data-name="Path 11281" class="cls-10" d="M22.19,50.632c-.193-1.655.8-4.118-.392-5.256-1.166-1.109-3.521-.267-5.351-.324-1.31-.046-2.62.017-3.924-.017a4.123,4.123,0,0,1-4.212-4.266c-.055-2.019-.039-4.039-.011-6.058.039-2.907,1.725-4.636,4.593-4.681,2.554-.034,5.113-.063,7.672.017,1.216.034,1.68-.319,1.642-1.638-.083-2.816-.055-5.631-.011-8.447a4.092,4.092,0,0,1,4.146-4.3c1.9-.051,3.808-.04,5.71-.006a4.293,4.293,0,0,1,4.433,4.482q.1,4.224,0,8.447c-.028,1.138.354,1.485,1.432,1.456,2.5-.063,5-.04,7.5-.011,3.245.028,4.936,1.769,4.98,5.108.022,1.718.05,3.436-.006,5.148-.105,3.026-1.824,4.733-4.748,4.75-2.559.023-5.118.068-7.672-.017-1.2-.046-1.515.41-1.481,1.581.072,2.565.033,5.142.017,7.713-.017,3.476-1.553,5.08-4.875,5.1-1.785.011-3.571.034-5.351-.011A3.95,3.95,0,0,1,22.2,55.257c-.05-1.468-.011-2.941-.011-4.625" transform="translate(37.462 73.257)"/>
        <path id="Path_11282" data-name="Path 11282" class="cls-11" d="M26.93,0H13.736V25.358H29.268a.977.977,0,0,0,.962-.99V3.4A3.347,3.347,0,0,0,26.93,0" transform="translate(62.189 -0.002)"/>
        <path id="Path_11283" data-name="Path 11283" class="cls-12" d="M41.024,0H11.209A3.346,3.346,0,0,0,7.915,3.4V24.369a.977.977,0,0,0,.962.99H43.363a.977.977,0,0,0,.962-.99V3.4a3.347,3.347,0,0,0-3.3-3.4" transform="translate(35.835 -0.002)"/>
      </g>
    </g>
  </g>
</svg>
