<svg xmlns="http://www.w3.org/2000/svg" xmlns:xlink="http://www.w3.org/1999/xlink" width="182" height="206" viewBox="0 0 182 206">
  <defs>
    <style>
      .cls-1 {
        fill: none;
      }

      .cls-2 {
        clip-path: url(#clip-path);
      }

      .cls-3 {
        fill: #e1e6f5;
      }

      .cls-4 {
        fill: #c7ccec;
      }

      .cls-5 {
        fill: #3b5891;
      }

      .cls-6 {
        fill: #4c6cb4;
      }

      .cls-7 {
        fill: #bfd9fb;
      }

      .cls-8 {
        fill: #789fd3;
      }

      .cls-9 {
        fill: #5e86c9;
      }
    </style>
    <clipPath id="clip-path">
      <rect id="Rectangle_8254" data-name="Rectangle 8254" class="cls-1" width="182" height="206" transform="translate(0.259 -0.495)"/>
    </clipPath>
  </defs>
  <g id="Group_4000" data-name="Group 4000" transform="translate(-0.259 0.495)">
    <g id="Group_3999" data-name="Group 3999" class="cls-2" transform="translate(0 0)">
      <path id="Path_11284" data-name="Path 11284" class="cls-3" d="M7.751,85.952a39.532,39.532,0,0,1,4.942-5.224c3.536-3.479,4.883-7.83,5.177-12.638.209-3.326-.412-6.679.431-9.979a17.4,17.4,0,0,1,4.458-8.075Q46.674,25.771,70.647,1.573A13.37,13.37,0,0,1,71.955.528a12.767,12.767,0,0,1,3.837,2.936q18.561,18.759,37.1,37.557c3.138,3.194,5.962,6.666,6.576,11.388.379,2.956.68,5.919-1.36,8.491-1.333.046-1.935-1.058-2.7-1.832Q96.431,39.923,77.5,20.738c-2.419-2.447-2.419-2.447-4.9.066-1.693,1.713-3.386,3.412-5.059,5.145C57.26,36.273,47.076,46.689,36.774,56.992c-1.307,1.309-1.072,2.083.1,3.267C48.253,71.687,59.555,83.181,70.915,94.628c2.026,2.11,4.118,4.16,6.151,6.256a4.176,4.176,0,0,1,1.458,2,3.865,3.865,0,0,1-1.458,2.725c-3.746,3.842-7.478,7.7-11.531,11.216a15.359,15.359,0,0,1-9.047,3.677c-4.6.351-9.243-.013-13.819.8a5.622,5.622,0,0,1-2.118-1.706Q24.972,103.857,9.418,88.094c-.634-.641-1.432-1.177-1.667-2.143" transform="translate(42.915 2.963)"/>
      <path id="Path_11285" data-name="Path 11285" class="cls-4" d="M88.706,63.659a15.235,15.235,0,0,0-2.477-15.878C73,33.41,58.879,19.926,45.282,5.919c-.824-.853-2.072-1.243-2.6-2.427,6.87-5,14.819-4.576,21.048.926,2.177,1.918,4.21,3.975,6.243,6.031q16.884,17.032,33.71,34.118c2.974,3.035,5.609,6.3,6.262,10.813.732,5.026-.163,9.662-3.654,13.233q-24.768,25.355-49.8,50.439c-2.824,2.837-6.517,3.776-10.393,3.981-3.765.2-7.57-.4-11.3.734-5.53,1.693-9.053,5.965-12.8,9.973-2.85-2.632-5.491-5.482-8.217-8.247-.4-.41-1.046-.833-.6-1.614,5.118-1.581,10.465-.245,15.629-1.25a16.53,16.53,0,0,0,8.106-4.166c3.615-3.267,6.949-6.805,10.42-10.218a4.321,4.321,0,0,0,1.621-2.645,9.594,9.594,0,0,1,2.013-2.143q18.051-18.3,36.148-36.552a4.42,4.42,0,0,0,1.582-3.247" transform="translate(72.183 -0.001)"/>
      <path id="Path_11286" data-name="Path 11286" class="cls-5" d="M49.364,48.409c2.569,2.659,5.144,5.31,7.7,7.982.5.529,1.307.913,1.118,1.878-4.321,4.345-8.6,8.743-12.982,13.022a11.853,11.853,0,0,1-17,.106c-.19-.946.549-1.4,1.059-1.944,1.569-1.633,3.177-3.221,4.765-4.841a9.456,9.456,0,0,0,.706-12.922,40.638,40.638,0,0,0-3.236-3.651Q19.7,36.125,7.934,24.178c-.667-.681-1.85-1.217-1.281-2.579q4.01-4.077,8.007-8.154L47.547,46.637c.595.6,1.209,1.184,1.817,1.772" transform="translate(36.006 75.469)"/>
      <path id="Path_11287" data-name="Path 11287" class="cls-6" d="M14.167,14.679c.026.992.843,1.435,1.425,2.017q12.58,12.757,25.166,25.5c2.477,2.513,4.465,5.33,4.19,9.133a9.276,9.276,0,0,1-2.608,6.309c-2.262,2.222-4.425,4.557-6.641,6.838l-.176.013-.163-.026a3.253,3.253,0,0,1-1.177-.886Q21.926,51.148,9.63,38.738a3.441,3.441,0,0,1-.869-1.184c-5.125-6.474-4.8-12.81,1-18.656a32.21,32.21,0,0,1,4.406-4.219" transform="translate(28.499 82.396)"/>
      <path id="Path_11288" data-name="Path 11288" class="cls-4" d="M24.147,18.138a11.146,11.146,0,0,1,1.327,1.005Q37.632,31.4,49.751,43.7a11.259,11.259,0,0,1,.994,1.342Q31.419,56.594,12.119,68.181c-1.19.721-1.758.7-2.726-.364-2.183-2.394-4.569-4.59-6.877-6.865-.588-1.376.7-1.534,1.353-1.938C8.91,55.9,14.015,52.9,19.094,49.855c4.112-2.473,8.2-4.967,12.348-7.374,1.634-.952,1.654-1.29.281-2.692-3.661-3.743-7.36-7.44-11.021-11.183-.608-.622-1.517-1.124-1.32-2.255l4.765-8.214" transform="translate(13.106 101.812)"/>
      <path id="Path_11289" data-name="Path 11289" class="cls-3" d="M20.879,19.38q6.344,6.527,12.688,13.041c2.1,2.156,2.092,2.11-.5,3.657Q19.14,44.372,5.25,52.7c-.523.311-1.229.45-1.242,1.276-2.432-1.951-2.36-1.911-.8-4.557q8.628-14.672,17.172-29.383a6.063,6.063,0,0,1,.5-.661" transform="translate(11.615 108.784)"/>
      <path id="Path_11290" data-name="Path 11290" class="cls-7" d="M20.316,46.223c-.2,4.3-2.079,7.387-5.484,9.245a9.206,9.206,0,0,1-10.825-.992A10.015,10.015,0,0,1,.249,44.113c.811-4.107,3.563-7.169,5.4-10.72,1.065-2.063,2.366-4.008,3.569-6,.346-.569.771-1.587,1.418-.41C13.786,32.7,18.114,37.771,20,44.186a13.039,13.039,0,0,1,.314,2.037" transform="translate(0 148.385)"/>
      <path id="Path_11291" data-name="Path 11291" class="cls-8" d="M47.476,73.442c-.529-.456-1.1-.873-1.588-1.369Q29.415,55.438,12.942,38.8c-1.17-1.171-1.451-1.812-.111-3.148,9.988-9.979,19.891-20.058,29.827-30.1.438-.443.961-.813,1.445-1.217a74.385,74.385,0,0,1,5.406,5.37c7.112,7.387,14.7,14.3,21.414,22.088a14,14,0,0,1-.2,17.823c-7.393,8.3-15.427,15.958-23.251,23.821" transform="translate(66.106 24.36)"/>
      <path id="Path_11292" data-name="Path 11292" class="cls-9" d="M20.238,79.937c.013-1,.83-1.442,1.405-2.03,6.2-6.3,12.466-12.526,18.6-18.894A23.208,23.208,0,0,0,45.13,52.69a13.793,13.793,0,0,0-2.17-14.463c-7.9-8.782-16.538-16.837-24.7-25.362-.562-.589-1.392-1.032-1.405-2.03,2.216-2.282,4.491-4.5,6.609-6.878,1.222-1.369,1.909-.694,2.857.271Q39.865,17.987,53.458,31.693c4.68,4.722,9.393,9.4,14.087,14.1.909.932.811,1.653-.15,2.619Q48.422,67.5,29.527,86.656c-.49.489-.9,1.124-1.726,1.078q-3.785-3.9-7.563-7.8" transform="translate(93.344 17.865)"/>
    </g>
  </g>
</svg>
