<?xml version="1.0" encoding="UTF-8" standalone="no"?>
<!-- Created with Inkscape (http://www.inkscape.org/) -->

<svg
   width="123.12698mm"
   height="85.607025mm"
   viewBox="0 0 123.12698 85.607025"
   version="1.1"
   id="svg1"
   xmlns="http://www.w3.org/2000/svg"
   xmlns:svg="http://www.w3.org/2000/svg">
  <defs
     id="defs1" />
  <g
     id="layer1"
     transform="translate(-26.328093,-93.115433)">
    <path
       style="fill:#f0966b;fill-opacity:1;stroke:#f0966b;stroke-width:1.325;stroke-dasharray:none;stroke-opacity:1"
       d="m 87.29932,93.832312 c -1.792633,0.235567 -3.493356,0.722998 -4.973467,1.812129 -1.19634,0.88031 -2.231473,1.983252 -2.942599,3.295035 -2.293218,4.230144 -1.281979,9.663034 2.531276,12.668814 1.0596,0.83523 2.257442,1.43118 3.552451,1.80281 1.213963,0.34837 2.561618,0.44034 3.814227,0.28848 1.512131,-0.18333 2.933633,-0.6963 4.22555,-1.50101 0.881344,-0.54895 1.683101,-1.27641 2.33999,-2.07818 3.657877,-4.46455 2.678792,-11.258744 -2.040805,-14.55688 -0.943487,-0.659315 -2.023934,-1.162589 -3.141128,-1.443183 -1.063488,-0.267102 -2.269456,-0.432051 -3.365495,-0.288015 m 0.373915,2.014102 c 0.751627,-0.0887 1.58929,0.03617 2.318481,0.218422 3.735566,0.933673 6.318075,4.447324 6.054533,8.296824 -0.261997,3.82698 -3.340055,6.87308 -7.101591,7.31862 -0.917781,0.10871 -1.87178,0.0293 -2.767169,-0.19984 -0.964157,-0.24674 -1.886311,-0.6681 -2.692395,-1.25355 -3.984401,-2.89377 -4.409107,-8.88093 -0.785282,-12.256327 1.407147,-1.310715 3.100008,-1.903051 4.973423,-2.124149 M 44.78191,105.01323 c -0.892563,0.11723 -1.747407,0.19485 -2.617621,0.45981 -1.980651,0.60308 -3.743075,1.91465 -4.977398,3.56292 -0.702558,0.93821 -1.232513,2.01526 -1.555724,3.14113 -1.563233,5.4448 1.810477,11.31561 7.393178,12.54864 1.155486,0.25521 2.342419,0.30913 3.515086,0.15491 4.6575,-0.61251 8.314538,-4.55032 8.634745,-9.22588 0.322902,-4.71429 -2.877011,-9.1849 -7.475504,-10.33482 -0.910715,-0.22772 -1.976632,-0.4302 -2.916762,-0.30671 m 85.22178,0 c -2.31345,0.30387 -4.36145,0.96874 -6.13267,2.57069 -0.92701,0.8384 -1.70125,1.86349 -2.2528,2.98521 -2.72128,5.5344 0.36013,12.42085 6.32876,14.0546 1.30932,0.35838 2.69527,0.43786 4.0386,0.25688 4.91322,-0.66193 8.72144,-5.13122 8.60016,-10.08592 -0.11272,-4.60555 -3.46496,-8.68631 -8.00184,-9.59541 -0.82229,-0.16477 -1.74189,-0.29616 -2.58021,-0.18605 m -85.408781,2.05148 c 0.919239,-0.10849 1.920584,0.0316 2.804578,0.28323 0.944635,0.26888 1.836535,0.714 2.617622,1.30972 3.321416,2.53316 4.114471,7.35915 1.756461,10.81131 -0.644126,0.94302 -1.495084,1.73014 -2.466969,2.32551 -0.911775,0.55858 -1.999908,0.95527 -3.06631,1.07117 -1.557844,0.1693 -3.151728,-0.0503 -4.562144,-0.75553 -4.311366,-2.15569 -5.737947,-7.80643 -2.943262,-11.72799 0.59117,-0.82953 1.333522,-1.54616 2.195389,-2.09209 1.129737,-0.71561 2.347543,-1.06989 3.664635,-1.22533 m 85.483551,0 c 4.44541,-0.52466 8.34581,3.48658 8.45062,7.76735 0.0674,2.75299 -1.38299,5.342 -3.66411,6.84306 -0.97727,0.64307 -2.13179,1.04556 -3.29072,1.18606 -1.02842,0.12469 -2.10348,0.0544 -3.10372,-0.21938 -0.83572,-0.22875 -1.63977,-0.60498 -2.35584,-1.09162 -3.51778,-2.39063 -4.44811,-7.20962 -2.25073,-10.79411 0.53569,-0.87387 1.26935,-1.63323 2.10113,-2.22767 1.24533,-0.88998 2.6148,-1.28683 4.11337,-1.46369 M 50.8398,130.94914 v -0.0374 c 0.826136,-0.30249 1.627848,-0.92907 2.393211,-1.36784 1.528208,-0.8761 3.079559,-1.70765 4.636917,-2.52938 4.402747,-2.32309 9.066386,-4.32419 13.835936,-5.761 9.058435,-2.72885 18.718684,-3.07058 27.970967,-1.10349 4.997049,1.06241 9.798449,2.78804 14.434259,4.91665 2.51794,1.15616 4.95377,2.49024 7.32927,3.9155 1.16631,0.69974 2.47836,1.3825 3.51509,2.26611 -0.45002,0.0393 -0.91911,0.24404 -1.3462,0.3864 -0.76448,0.25482 -1.52702,0.50998 -2.28107,0.79438 -2.63229,0.99285 -5.19187,2.1669 -7.66582,3.50506 -0.5523,0.29872 -1.09997,0.60638 -1.64538,0.91769 -0.28726,0.16397 -0.63185,0.31382 -0.85207,0.56712 -0.40465,0.46543 -0.24927,1.21135 0.25379,1.53371 0.50645,0.32455 1.00474,0.0537 1.45838,-0.20962 0.91058,-0.52849 1.84713,-1.00682 2.76717,-1.51684 2.54377,-1.41013 5.32114,-2.54134 8.07718,-3.46002 0.7916,-0.26387 1.58775,-0.51046 2.39326,-0.72861 0.31402,-0.0851 0.68471,-0.24661 1.00965,-0.26008 0.37665,-0.0156 0.96786,0.59321 1.27137,0.80201 1.15072,0.79156 2.28218,1.61218 3.44032,2.39284 2.28496,1.54023 4.58489,3.0886 7.1049,4.22465 1.39266,0.62781 2.97042,1.21375 4.52473,1.14632 1.40247,-0.0608 2.77468,-0.45595 3.85164,-1.39294 1.77382,-1.5433 1.91604,-4.12041 0.6284,-6.00968 -1.08937,-1.59844 -2.84843,-2.46015 -4.62963,-3.05388 -3.39583,-1.13194 -7.03498,-1.37519 -10.58258,-1.13095 -1.21184,0.0834 -2.43411,0.25184 -3.62727,0.48279 -0.37661,0.0729 -1.17951,0.38887 -1.53315,0.23755 -0.77906,-0.33333 -1.53576,-1.02545 -2.24366,-1.4965 -1.34064,-0.89208 -2.72076,-1.73115 -4.11342,-2.53941 -4.13412,-2.39938 -8.49491,-4.45497 -13.01324,-6.02349 -9.282625,-3.22245 -19.349472,-4.46226 -29.092799,-2.95116 -5.004781,0.77619 -9.862974,2.28841 -14.546443,4.19487 -3.74462,1.5243 -7.389557,3.31319 -10.91913,5.28221 -1.204997,0.67221 -2.407167,1.35089 -3.58986,2.06192 -0.566923,0.34083 -1.146079,0.82619 -1.757566,1.07548 -0.366627,0.14948 -1.152262,-0.20708 -1.533155,-0.29465 -1.20429,-0.27686 -2.436184,-0.46473 -3.664634,-0.58755 -3.57533,-0.35744 -7.268717,-0.0637 -10.694808,1.07812 -1.811271,0.60365 -3.632039,1.54078 -4.671897,3.21592 -0.291279,0.46922 -0.518649,0.99258 -0.637589,1.53317 -0.674645,3.06603 1.959716,5.5165 4.898163,5.64509 1.806899,0.0791 3.495123,-0.48724 5.123015,-1.22112 2.432608,-1.09664 4.666598,-2.5865 6.880581,-4.06249 1.144798,-0.76322 2.274138,-1.55994 3.440268,-2.29012 0.297374,-0.18621 0.870215,-0.74658 1.234015,-0.69391 0.328378,0.0476 0.65636,0.20496 0.972239,0.30315 0.84738,0.26338 1.681466,0.57629 2.505438,0.90588 2.987561,1.19503 5.761135,2.75524 8.48851,4.44965 0.859614,0.53403 1.691934,1.1254 2.505438,1.72684 0.475807,0.35175 1.050193,0.59186 1.564072,0.14764 0.405935,-0.35093 0.459995,-1.02553 0.110725,-1.43279 -0.644611,-0.75163 -1.752,-1.31056 -2.572262,-1.8574 -2.364414,-1.57629 -4.858899,-2.95485 -7.441496,-4.13739 -1.254287,-0.57432 -2.615148,-1.24708 -3.963775,-1.55902 m 36.534294,-8.77181 c -1.048779,0.13776 -2.095086,0.16562 -3.141128,0.37488 -1.764278,0.35295 -3.470169,0.96304 -5.08565,1.75043 -5.720589,2.78825 -10.231544,8.34178 -11.608128,14.57411 -0.373075,1.68921 -0.628403,3.50697 -0.463882,5.23522 0.261775,2.75057 1.157209,5.3914 2.221447,7.92761 1.486692,3.54297 3.307989,6.92548 5.235198,10.24606 2.26186,3.89717 4.712752,7.69581 7.269424,11.40528 0.581497,0.84369 1.110436,1.77257 1.833841,2.50528 1.320228,1.33727 3.2939,2.04282 5.15985,1.82179 1.442349,-0.17084 2.836423,-0.80405 3.850179,-1.85907 0.804229,-0.83698 1.402863,-1.88979 2.05909,-2.84194 1.819929,-2.64054 3.57745,-5.33582 5.241868,-8.07718 2.372277,-3.90732 4.630777,-7.8714 6.510467,-12.041 1.34319,-2.97961 2.52752,-6.17608 2.75242,-9.46078 0.14495,-2.11748 -0.31496,-4.3577 -0.98139,-6.35704 -1.9568,-5.87043 -6.49646,-10.74994 -12.065911,-13.37899 -2.043014,-0.96439 -4.287649,-1.6037 -6.544032,-1.76905 -0.730206,-0.0535 -1.512264,-0.15168 -2.243663,-0.0556 m -0.261775,2.0515 c 2.555126,-0.30156 5.370834,0.39928 7.703272,1.39456 5.265899,2.24704 9.625799,6.83051 11.442679,12.28111 0.60782,1.82352 1.0263,3.86496 0.89411,5.79613 -0.19018,2.77781 -1.19413,5.46467 -2.28332,8.0024 -1.79511,4.1824 -4.05953,8.15499 -6.418647,12.04099 -1.866392,3.0744 -3.836619,6.08827 -5.877557,9.04944 -0.994235,1.44255 -1.974777,2.98375 -3.889973,3.17216 -1.430512,0.14075 -2.799014,-0.32674 -3.770325,-1.41463 -0.522933,-0.5857 -0.915971,-1.30449 -1.368546,-1.9445 -2.478673,-3.50503 -4.800644,-7.16916 -6.955355,-10.88177 -1.926502,-3.31937 -3.773417,-6.67855 -5.288507,-10.20866 -0.988537,-2.30317 -1.92774,-4.77803 -2.168183,-7.29191 -0.69845,-7.30379 4.20784,-14.63458 10.5389,-17.90224 2.377355,-1.22704 4.809565,-1.78246 7.441452,-2.09308 m -41.283396,7.43081 c -0.258507,0.31279 -0.710287,0.52338 -1.047013,0.74788 l -2.094115,1.39606 c -2.691026,1.79403 -5.596658,3.87812 -8.78765,4.65699 -1.751514,0.4275 -4.321745,0.17146 -4.827673,-1.93966 -0.513083,-2.14094 1.857912,-3.5284 3.518841,-4.15796 2.895561,-1.09756 6.202579,-1.43375 9.273835,-1.22349 1.332153,0.0912 2.639793,0.41479 3.963775,0.52018 m 84.212177,0.48612 c 1.32075,-0.0567 2.63749,-0.35182 3.96377,-0.40987 3.13539,-0.13721 6.3951,0.2398 9.34861,1.33282 1.68081,0.62203 4.10621,2.25677 3.27336,4.38705 -0.65808,1.68329 -2.67079,2.00034 -4.2456,1.73561 -1.35101,-0.22709 -2.65043,-0.84824 -3.85163,-1.48204 -1.87541,-0.98956 -3.69454,-2.13234 -5.4222,-3.36258 -0.70371,-0.5011 -1.41965,-0.98808 -2.13148,-1.47774 -0.28519,-0.19617 -0.76704,-0.41632 -0.93483,-0.72325 m -42.367865,0.42721 c -0.716559,0.0941 -1.423401,0.12405 -2.13148,0.30106 -2.048226,0.51206 -3.923804,1.63119 -5.341022,3.19814 -0.892606,0.9869 -1.612787,2.15403 -2.074946,3.40289 -2.074416,5.60549 0.956869,12.14914 6.742869,13.94716 1.519022,0.47203 3.135828,0.60897 4.711692,0.40175 4.909028,-0.64548 8.857433,-4.84582 9.195705,-9.78679 0.344632,-5.03426 -2.913096,-9.69877 -7.774689,-11.0845 -1.020646,-0.29091 -2.266188,-0.5192 -3.328129,-0.37971 m 0.112183,2.05149 c 0.780909,-0.0922 1.674046,0.0658 2.430664,0.25582 4.06262,1.02037 6.787522,4.89288 6.503266,9.04472 -0.275335,4.02166 -3.610443,7.48094 -7.625097,7.88389 -1.827172,0.1834 -3.673027,-0.17861 -5.272608,-1.0941 -3.871952,-2.21601 -5.426219,-7.28432 -3.431082,-11.27712 0.492855,-0.98628 1.153102,-1.871 1.972701,-2.61127 1.558418,-1.4076 3.389168,-1.962 5.422156,-2.20194 m -37.095211,2.99825 c -1.059821,0.19241 -0.846717,1.50895 -0.95073,2.30109 -0.321091,2.44556 -0.335666,4.97795 -0.395997,7.44148 -0.172515,7.04111 -0.163461,14.28291 1.557137,21.16522 0.723184,2.89277 1.86224,6.31897 4.389099,8.13596 1.646222,1.18375 3.596265,1.41211 5.534383,0.92745 1.1675,-0.29196 2.282883,-0.88472 2.95077,-1.92108 0.446657,-0.69303 0.617582,-1.50732 0.673143,-2.31846 0.07663,-1.11896 -0.224499,-2.29887 -0.531059,-3.36549 -0.519178,-1.80639 -1.255214,-3.54122 -1.884721,-5.31 -0.440959,-1.23887 -0.908772,-2.56068 -0.941587,-3.88902 -0.04063,-1.63978 1.635224,-2.56209 3.136313,-2.38256 2.279306,0.2726 3.034069,3.14176 3.440313,5.03757 0.479251,2.2367 0.836957,4.49729 1.330297,6.73098 0.319767,1.44769 0.709316,2.99418 1.431661,4.30035 0.513259,0.92805 1.112998,1.78827 1.987099,2.41463 1.541723,1.10474 3.792011,1.14052 5.496974,0.41136 0.622793,-0.26635 1.19316,-0.70153 1.628952,-1.21803 0.172294,-0.20419 0.37069,-0.43076 0.386325,-0.71049 0.0212,-0.3839 -0.365037,-0.90358 -0.63516,-1.15123 -0.640636,-0.58728 -1.077444,0.27493 -1.461252,0.65875 -0.233552,0.23355 -0.515954,0.42021 -0.816331,0.55561 -1.614774,0.72796 -3.419642,0.0863 -4.384638,-1.33454 -0.850693,-1.2526 -1.25093,-2.80533 -1.585404,-4.26296 -0.560606,-2.44296 -0.886821,-4.9345 -1.494862,-7.36669 -0.463617,-1.85443 -1.128545,-3.89835 -2.668943,-5.1432 -2.183287,-1.76435 -6.279297,-1.08362 -7.467246,1.55334 -0.683875,1.51809 -0.292382,3.37164 0.153788,4.89866 0.844024,2.88867 2.41291,5.6631 2.778035,8.6755 0.08228,0.67895 0.09165,1.45754 -0.291853,2.05669 -0.378861,0.59194 -1.054654,0.91341 -1.716755,1.0797 -1.179381,0.29621 -2.414014,0.28487 -3.477678,-0.37164 -2.47567,-1.528 -3.42746,-4.86394 -4.089959,-7.51384 -1.706023,-6.82409 -1.369606,-13.90647 -1.369606,-20.86606 0,-2.39901 0.354393,-4.78558 0.411324,-7.17972 0.01811,-0.75405 0.324978,-1.81046 -0.710508,-2.03168 -0.135017,-0.0288 -0.27529,-0.0323 -0.411324,-0.008 m 74.078283,0.002 c -1.07042,0.2287 -0.79261,1.585 -0.689,2.37388 0.33664,2.56273 0.17658,5.17361 0.42086,7.74064 0.0411,0.43275 -0.011,0.87464 0.008,1.3088 0.0794,1.81467 0.0437,3.64471 0,5.45958 -0.11523,4.70866 -0.42232,9.43125 -1.57582,14.02289 -0.62698,2.4957 -1.75297,5.8235 -4.22082,7.05744 -1.41929,0.70962 -4.06743,0.57373 -4.93447,-0.96216 -0.42457,-0.75203 -0.31513,-1.73106 -0.15856,-2.54281 0.18011,-0.93357 0.48032,-1.83021 0.78021,-2.72979 0.22657,-0.67973 0.48596,-1.34894 0.73877,-2.0193 0.19689,-0.52216 0.4024,-1.04244 0.58255,-1.57059 0.79946,-2.34405 2.08926,-5.79186 -0.0437,-7.83696 -0.27891,-0.2674 -0.58874,-0.49334 -0.92852,-0.67742 -0.48592,-0.26326 -1.02987,-0.44121 -1.57056,-0.55001 -0.81373,-0.16372 -1.65475,-0.20358 -2.46803,-0.0136 -2.15842,0.50408 -3.31347,2.56645 -3.96382,4.51592 -1.33303,3.99603 -1.26882,8.39979 -3.02386,12.26536 -0.83807,1.84583 -2.71731,3.003 -4.716776,2.22066 -0.28324,-0.11082 -0.560429,-0.25991 -0.785282,-0.46661 -0.394054,-0.36228 -0.797471,-1.04977 -1.420927,-0.66942 -0.163328,0.0996 -0.268224,0.2574 -0.37493,0.41114 -0.114966,0.16568 -0.249365,0.32618 -0.306075,0.52352 -0.166022,0.57755 0.434379,1.07054 0.830553,1.3909 1.163922,0.94118 2.764431,1.24175 4.225547,1.06645 2.2313,-0.2677 3.68924,-1.91596 4.55689,-3.87833 1.44791,-3.27475 1.6926,-6.97449 2.48627,-10.43303 0.41132,-1.79229 1.12099,-4.78853 3.35247,-5.0045 0.37161,-0.036 0.75781,-4.4e-4 1.12183,0.0763 0.38637,0.0817 0.77861,0.20002 1.12183,0.39882 1.53731,0.89034 0.86606,3.10158 0.47028,4.45457 -0.87299,2.98432 -2.41648,5.78198 -2.79936,8.89987 -0.23735,1.9328 0.37086,3.9077 2.2169,4.83311 0.59682,0.29916 1.21506,0.49762 1.86974,0.62644 0.88108,0.17337 1.81269,0.20652 2.6924,0.004 3.52242,-0.80996 5.16568,-4.31981 6.20744,-7.44571 0.70092,-2.1031 1.09078,-4.31671 1.39946,-6.50662 0.75048,-5.32445 0.69465,-10.64232 0.69465,-16.00479 0,-2.66573 -0.10935,-5.42927 -0.42201,-8.07719 -0.10141,-0.85877 0,-2.55547 -1.37292,-2.2617 z"
       id="path1" />
  </g>
</svg>
