<svg width="42" height="42" viewBox="0 0 42 42" fill="none" xmlns="http://www.w3.org/2000/svg">
<path d="M6 30.1875C6 31.7402 7.24777 33 8.78571 33H29.2143C30.7522 33 32 31.7402 32 30.1875V14.25H6V30.1875ZM24.5714 18.7031C24.5714 18.3164 24.8848 18 25.2679 18H27.5893C27.9723 18 28.2857 18.3164 28.2857 18.7031V21.0469C28.2857 21.4336 27.9723 21.75 27.5893 21.75H25.2679C24.8848 21.75 24.5714 21.4336 24.5714 21.0469V18.7031ZM24.5714 26.2031C24.5714 25.8164 24.8848 25.5 25.2679 25.5H27.5893C27.9723 25.5 28.2857 25.8164 28.2857 26.2031V28.5469C28.2857 28.9336 27.9723 29.25 27.5893 29.25H25.2679C24.8848 29.25 24.5714 28.9336 24.5714 28.5469V26.2031ZM17.1429 18.7031C17.1429 18.3164 17.4562 18 17.8393 18H20.1607C20.5437 18 20.8571 18.3164 20.8571 18.7031V21.0469C20.8571 21.4336 20.5437 21.75 20.1607 21.75H17.8393C17.4562 21.75 17.1429 21.4336 17.1429 21.0469V18.7031ZM17.1429 26.2031C17.1429 25.8164 17.4562 25.5 17.8393 25.5H20.1607C20.5437 25.5 20.8571 25.8164 20.8571 26.2031V28.5469C20.8571 28.9336 20.5437 29.25 20.1607 29.25H17.8393C17.4562 29.25 17.1429 28.9336 17.1429 28.5469V26.2031ZM9.71429 18.7031C9.71429 18.3164 10.0277 18 10.4107 18H12.7321C13.1152 18 13.4286 18.3164 13.4286 18.7031V21.0469C13.4286 21.4336 13.1152 21.75 12.7321 21.75H10.4107C10.0277 21.75 9.71429 21.4336 9.71429 21.0469V18.7031ZM9.71429 26.2031C9.71429 25.8164 10.0277 25.5 10.4107 25.5H12.7321C13.1152 25.5 13.4286 25.8164 13.4286 26.2031V28.5469C13.4286 28.9336 13.1152 29.25 12.7321 29.25H10.4107C10.0277 29.25 9.71429 28.9336 9.71429 28.5469V26.2031ZM29.2143 6.75H26.4286V3.9375C26.4286 3.42188 26.0107 3 25.5 3H23.6429C23.1321 3 22.7143 3.42188 22.7143 3.9375V6.75H15.2857V3.9375C15.2857 3.42188 14.8679 3 14.3571 3H12.5C11.9893 3 11.5714 3.42188 11.5714 3.9375V6.75H8.78571C7.24777 6.75 6 8.00977 6 9.5625V12.375H32V9.5625C32 8.00977 30.7522 6.75 29.2143 6.75Z" fill="white"/>
</svg>
