<svg width="30" height="23" viewBox="0 0 30 23" fill="none" xmlns="http://www.w3.org/2000/svg">
<path d="M3.54259 1H11.0923C11.4535 0.999998 11.8111 1.07216 12.144 1.21225C12.4769 1.35233 12.7784 1.5575 13.0308 1.81571L15.0438 3.87499C15.243 4.07869 15.4808 4.24064 15.7434 4.35115C16.0061 4.46166 16.2882 4.5186 16.5731 4.51859H25.8893C26.5637 4.5186 27.2104 4.78628 27.6872 5.26282C28.164 5.73936 28.432 6.38567 28.432 7.05961V19.0239C28.432 19.6979 28.164 20.3442 27.6872 20.8207C27.2104 21.2973 26.5637 21.565 25.8893 21.565H3.54272C2.86837 21.565 2.22153 21.2973 1.74469 20.8207C1.26785 20.3442 1 19.6979 1 19.0239V3.54114C1 3.20744 1.06581 2.87704 1.19359 2.56874C1.32137 2.26044 1.50858 1.98032 1.74469 1.74436C1.98079 1.50839 2.2611 1.32117 2.56958 1.19347C2.87807 1.06577 3.20868 1 3.54259 1Z" fill="white" stroke="white" stroke-width="2"/>
</svg>
