<svg width="27" height="27" viewBox="0 0 27 27" fill="none" xmlns="http://www.w3.org/2000/svg">
<path d="M11.3988 1.64759L3.10118 7.29482C2.45395 7.73532 1.92405 8.32817 1.55778 9.02159C1.1915 9.715 1 10.4879 1 11.2727V23.4521C1 24.1279 1.26748 24.7759 1.74359 25.2538C2.21971 25.7316 2.86546 26 3.53879 26H6.15588C6.8292 26 7.47496 25.7316 7.95107 25.2538C8.42719 24.7759 8.69466 24.1279 8.69466 23.4521V17.2359C8.69466 16.5601 8.96214 15.9121 9.43826 15.4343C9.91437 14.9564 10.5601 14.688 11.2335 14.688H15.7665C16.4399 14.688 17.0856 14.9564 17.5617 15.4343C18.0379 15.9121 18.3053 16.5601 18.3053 17.2359V23.4521C18.3053 24.1279 18.5728 24.7759 19.0489 25.2538C19.525 25.7316 20.1708 26 20.8441 26H23.4612C24.1345 26 24.7803 25.7316 25.2564 25.2538C25.7325 24.7759 26 24.1279 26 23.4521V11.2727C26 10.4879 25.8085 9.715 25.4422 9.02159C25.076 8.32817 24.546 7.73532 23.8988 7.29482L15.6012 1.64759C14.9811 1.22559 14.2492 1 13.5 1C12.7508 1 12.0189 1.22559 11.3988 1.64759Z" stroke="#787878" stroke-width="2"/>
</svg>
