<svg width="24" height="24" viewBox="0 0 24 24" fill="none" xmlns="http://www.w3.org/2000/svg">
<path d="M4.35329 0C1.94157 0 0 1.94815 0 4.36805V19.6319C0 22.0517 1.94157 24 4.35329 24H19.5887C22.0004 24 23.942 22.0517 23.942 19.6319V4.36805C23.942 1.94815 22.0004 0 19.5887 0H4.35329ZM5.28641 6.1924H18.6548C18.7759 6.1924 18.8959 6.21634 19.0078 6.26285C19.1197 6.30936 19.2214 6.37753 19.307 6.46347C19.3926 6.5494 19.4606 6.65142 19.5069 6.76371C19.5533 6.87599 19.5771 6.99633 19.5771 7.11787C19.5771 7.36331 19.48 7.5987 19.307 7.77225C19.134 7.94581 18.8994 8.04331 18.6548 8.04332H5.28641C5.16529 8.04332 5.04535 8.01938 4.93345 7.97287C4.82155 7.92637 4.71987 7.8582 4.63422 7.77226C4.54857 7.68633 4.48063 7.58431 4.43428 7.47203C4.38793 7.35974 4.36407 7.2394 4.36407 7.11787C4.36407 6.99633 4.38792 6.87599 4.43428 6.7637C4.48063 6.65142 4.54857 6.54939 4.63421 6.46346C4.71986 6.37752 4.82154 6.30935 4.93345 6.26284C5.04535 6.21633 5.16529 6.19239 5.28641 6.1924ZM5.28641 11.0745H18.6548C18.8994 11.0745 19.134 11.172 19.307 11.3456C19.48 11.5191 19.5771 11.7545 19.5771 11.9999C19.5771 12.1215 19.5533 12.2418 19.5069 12.3541C19.4606 12.4664 19.3926 12.5684 19.307 12.6543C19.2214 12.7403 19.1197 12.8085 19.0078 12.855C18.8959 12.9015 18.7759 12.9254 18.6548 12.9254H5.28641C5.16529 12.9254 5.04535 12.9015 4.93345 12.855C4.82154 12.8085 4.71986 12.7403 4.63421 12.6544C4.54857 12.5684 4.48063 12.4664 4.43428 12.3541C4.38792 12.2418 4.36407 12.1215 4.36407 11.9999C4.36407 11.8784 4.38793 11.7581 4.43428 11.6458C4.48064 11.5335 4.54858 11.4315 4.63422 11.3455C4.71987 11.2596 4.82155 11.1914 4.93345 11.1449C5.04536 11.0984 5.16529 11.0745 5.28641 11.0745ZM5.28641 15.9566H14.4964C14.741 15.9566 14.9756 16.0541 15.1485 16.2276C15.3215 16.4012 15.4187 16.6366 15.4187 16.882C15.4187 17.1275 15.3215 17.3628 15.1485 17.5364C14.9756 17.7099 14.741 17.8075 14.4964 17.8075H5.28641C5.16529 17.8075 5.04536 17.7835 4.93345 17.737C4.82155 17.6905 4.71987 17.6223 4.63422 17.5364C4.54858 17.4505 4.48064 17.3484 4.43428 17.2362C4.38793 17.1239 4.36407 17.0035 4.36407 16.882C4.36407 16.7605 4.38793 16.6401 4.43428 16.5279C4.48064 16.4156 4.54858 16.3136 4.63422 16.2276C4.71987 16.1417 4.82155 16.0735 4.93345 16.027C5.04536 15.9805 5.16529 15.9566 5.28641 15.9566Z" fill="white"/>
</svg>
