<svg width="38" height="38" viewBox="0 0 38 38" fill="none" xmlns="http://www.w3.org/2000/svg">
<path d="M33.25 3.16602H20.5834C18.8417 3.16602 17.4167 4.59102 17.4167 6.33268V11.8743H19.7917C21.5334 11.8743 22.9584 13.2993 22.9584 15.041V22.8785C24.605 23.6385 26.505 23.9552 28.5 23.6227C33.1392 22.8468 36.4167 18.6035 36.4167 13.901V6.33268C36.4167 4.59102 34.9917 3.16602 33.25 3.16602ZM22.1667 10.291C22.1667 9.42018 22.8792 8.70768 23.75 8.70768C24.6209 8.70768 25.3334 9.42018 25.3334 10.291C25.3334 11.1618 24.6209 11.8743 23.75 11.8743C22.8792 11.8743 22.1667 11.1618 22.1667 10.291ZM29.8459 17.226H23.9559C23.3542 17.226 22.9584 16.5768 23.2592 16.0385C23.8767 14.9935 25.27 14.2493 26.9009 14.2493C28.5317 14.2493 29.925 14.9935 30.5425 16.0543C30.8434 16.5768 30.4475 17.226 29.8459 17.226ZM30.0834 11.8743C29.2125 11.8743 28.5 11.1618 28.5 10.291C28.5 9.42018 29.2125 8.70768 30.0834 8.70768C30.9542 8.70768 31.6667 9.42018 31.6667 10.291C31.6667 11.1618 30.9542 11.8743 30.0834 11.8743Z" fill="white"/>
<path d="M17.4167 14.2493H4.75004C3.00837 14.2493 1.58337 15.6743 1.58337 17.416V25.0002C1.58337 29.8293 5.05087 34.136 9.83254 34.7535C15.6275 35.4977 20.5834 30.9852 20.5834 25.3327V17.416C20.5834 15.6743 19.1584 14.2493 17.4167 14.2493ZM6.33337 21.3743C6.33337 20.5035 7.04587 19.791 7.91671 19.791C8.78754 19.791 9.50004 20.5035 9.50004 21.3743C9.50004 22.2452 8.78754 22.9577 7.91671 22.9577C7.04587 22.9577 6.33337 22.2452 6.33337 21.3743ZM14.725 26.5202C14.1234 27.581 12.7142 28.3252 11.0834 28.3252C9.45254 28.3252 8.05921 27.581 7.44171 26.5202C7.14087 25.9818 7.53671 25.3327 8.13837 25.3327H14.0284C14.63 25.3327 15.0259 25.9818 14.725 26.5202ZM14.25 22.9577C13.3792 22.9577 12.6667 22.2452 12.6667 21.3743C12.6667 20.5035 13.3792 19.791 14.25 19.791C15.1209 19.791 15.8334 20.5035 15.8334 21.3743C15.8334 22.2452 15.1209 22.9577 14.25 22.9577Z" fill="white"/>
</svg>
