<?xml version="1.0" encoding="UTF-8"?>
<!-- Created with Inkscape (http://www.inkscape.org/) -->
<svg width="94.327mm" height="94.327mm" version="1.1" viewBox="0 0 94.327 94.327" xmlns="http://www.w3.org/2000/svg">
 <g transform="translate(-181.08 -82.604)" fill="none">
  <rect x="181.08" y="82.604" width="94.327" height="94.327" ry="0"/>
  <rect x="52.722" y="82.014" width="94.327" height="94.327" ry="1.078"/>
  <g transform="rotate(-16.553 101.89 141.3)" stroke="#f60">
   <rect x="77.278" y="96.931" width="16.304" height="16.304" ry="8.152" stroke-width="1.5778"/>
   <g stroke-width="1.3682">
    <path d="m90.342 105.07a4.9114 4.9114 0 0 1-2.4487 4.2614 4.9114 4.9114 0 0 1-4.9148 6e-3 4.9114 4.9114 0 0 1-2.4592-4.2554"/>
    <path d="m83.404 101.23v3.3084"/>
    <path d="m87.457 101.23v3.3084"/>
   </g>
  </g>
  <g transform="rotate(14.571 110.75 87.434)" stroke="#f60">
   <rect x="102.83" y="96.931" width="16.304" height="16.304" ry="8.152" stroke-width="1.5778"/>
   <g stroke-width="1.3682">
    <path transform="scale(1,-1)" d="m115.89-111.69a4.9114 4.9114 0 0 1-2.4487 4.2614 4.9114 4.9114 0 0 1-4.9148 6e-3 4.9114 4.9114 0 0 1-2.4592-4.2554"/>
    <path d="m108.95 101.23v3.3084"/>
    <path d="m113 101.23v3.3084"/>
   </g>
  </g>
  <g transform="rotate(-14.537 112.67 114.11)" stroke="#f60">
   <rect x="77.278" y="121.07" width="16.304" height="16.304" ry="8.152" stroke-width="1.5778"/>
   <g stroke-width="1.3682">
    <path d="m83.404 125.36v3.3084"/>
    <path d="m87.457 125.36v3.3084"/>
    <path d="m91.427 131.05h-11.717"/>
   </g>
  </g>
  <g transform="rotate(23.424 112.24 149.12)" stroke="#f60">
   <rect x="102.83" y="121.07" width="16.304" height="16.304" ry="8.152" stroke-width="1.5778"/>
   <g stroke-width="1.3682">
    <path d="m107.3 127.01h3.3084"/>
    <path d="m114.66 127.01h-3.3084"/>
    <path d="m118.76 130.99h-14.983"/>
   </g>
  </g>
  <g transform="rotate(27.987 -.34316 214.07)" stroke="#f60">
   <rect x="77.278" y="96.931" width="16.304" height="16.304" ry="8.152" stroke-width="1.5778"/>
   <g stroke-width="1.3682">
    <path d="m90.342 105.07a4.9114 4.9114 0 0 1-2.4487 4.2614 4.9114 4.9114 0 0 1-4.9148 6e-3 4.9114 4.9114 0 0 1-2.4592-4.2554"/>
    <path d="m83.404 101.23v3.3084"/>
    <path d="m87.457 101.23v3.3084"/>
   </g>
  </g>
  <g transform="rotate(20.818 117.28 241.42)" stroke="#f60">
   <rect x="77.278" y="96.931" width="16.304" height="16.304" ry="8.152" stroke-width="1.5778"/>
   <g stroke-width="1.3682">
    <path d="m90.342 105.07a4.9114 4.9114 0 0 1-2.4487 4.2614 4.9114 4.9114 0 0 1-4.9148 6e-3 4.9114 4.9114 0 0 1-2.4592-4.2554"/>
    <path d="m83.404 101.23v3.3084"/>
    <path d="m87.457 101.23v3.3084"/>
   </g>
  </g>
  <g transform="rotate(-23.808 158.7 239.59)" stroke="#f60">
   <rect x="102.83" y="96.931" width="16.304" height="16.304" ry="8.152" stroke-width="1.5778"/>
   <g stroke-width="1.3682">
    <path transform="scale(1,-1)" d="m115.89-111.69a4.9114 4.9114 0 0 1-2.4487 4.2614 4.9114 4.9114 0 0 1-4.9148 6e-3 4.9114 4.9114 0 0 1-2.4592-4.2554"/>
    <path d="m108.95 101.23v3.3084"/>
    <path d="m113 101.23v3.3084"/>
   </g>
  </g>
  <g transform="rotate(-23.808 215.77 47.747)" stroke="#f60">
   <rect x="102.83" y="96.931" width="16.304" height="16.304" ry="8.152" stroke-width="1.5778"/>
   <g stroke-width="1.3682">
    <path transform="scale(1,-1)" d="m115.89-111.69a4.9114 4.9114 0 0 1-2.4487 4.2614 4.9114 4.9114 0 0 1-4.9148 6e-3 4.9114 4.9114 0 0 1-2.4592-4.2554"/>
    <path d="m108.95 101.23v3.3084"/>
    <path d="m113 101.23v3.3084"/>
   </g>
  </g>
  <g stroke="#f60">
   <rect transform="rotate(23.424)" x="101.19" y="39.42" width="16.304" height="16.304" ry="8.152" stroke-width="1.5778"/>
   <g stroke-width="1.3682">
    <path d="m78.919 83.635 3.0358 1.3152"/>
    <path d="m85.674 86.561-3.0358-1.3152"/>
    <path d="m87.854 91.84-13.748-5.9562"/>
   </g>
  </g>
  <g transform="rotate(-18.029 197.56 283.5)" stroke="#f60">
   <rect x="102.83" y="121.07" width="16.304" height="16.304" ry="8.152" stroke-width="1.5778"/>
   <g stroke-width="1.3682">
    <path d="m107.3 127.01h3.3084"/>
    <path d="m114.66 127.01h-3.3084"/>
    <path d="m118.76 130.99h-14.983"/>
   </g>
  </g>
  <g stroke="#f60">
   <rect transform="rotate(-14.537)" x="87.424" y="103.06" width="16.304" height="16.304" ry="8.152" stroke-width="1.5778"/>
   <g stroke-width="1.3682">
    <path d="m117.5 80.441 0.83041 3.2025"/>
    <path d="m121.42 79.423 0.83041 3.2025"/>
    <path d="m126.69 83.931-11.342 2.9409"/>
   </g>
  </g>
  <g transform="translate(20.069 -1.4302)" stroke="#f55">
   <path d="m200.67 104.78-5.3392-10.736" stroke-width="1.3605"/>
   <rect transform="rotate(-26.167)" x="121.89" y="170.01" width="23.947" height="13.048" ry="6.5239" stroke-width="1.263"/>
  </g>
  <g transform="rotate(20.818 107.92 12.764)" stroke="#f60">
   <rect x="77.278" y="96.931" width="16.304" height="16.304" ry="8.152" stroke-width="1.5778"/>
   <g stroke-width="1.3682">
    <path d="m90.342 105.07a4.9114 4.9114 0 0 1-2.4487 4.2614 4.9114 4.9114 0 0 1-4.9148 6e-3 4.9114 4.9114 0 0 1-2.4592-4.2554"/>
    <path d="m83.404 101.23v3.3084"/>
    <path d="m87.457 101.23v3.3084"/>
   </g>
  </g>
  <g transform="rotate(-8.2857 513.25 214.98)" stroke="#f60">
   <rect x="102.83" y="96.931" width="16.304" height="16.304" ry="8.152" stroke-width="1.5778"/>
   <g stroke-width="1.3682">
    <path transform="scale(1,-1)" d="m115.89-111.69a4.9114 4.9114 0 0 1-2.4487 4.2614 4.9114 4.9114 0 0 1-4.9148 6e-3 4.9114 4.9114 0 0 1-2.4592-4.2554"/>
    <path d="m108.95 101.23v3.3084"/>
    <path d="m113 101.23v3.3084"/>
   </g>
  </g>
  <g transform="rotate(62.293 202.76 150.95)" stroke="#f55">
   <path d="m200.67 104.78-5.3392-10.736" stroke-width="1.3605"/>
   <rect transform="rotate(-26.167)" x="121.89" y="170.01" width="23.947" height="13.048" ry="6.5239" stroke-width="1.2626"/>
  </g>
  <g transform="translate(-.17531 -.95151)" stroke="#f55" stroke-width="1.263">
   <circle cx="249.61" cy="98.113" r="7.4845"/>
   <path d="m254.89 98.397-10.546-0.65585"/>
  </g>
  <g transform="rotate(-25.772 276.32 198.9)" stroke="#f55" stroke-width="1.263">
   <circle cx="249.61" cy="98.113" r="7.4845"/>
   <path d="m254.89 98.397-10.546-0.65585"/>
  </g>
  <g transform="rotate(6.0639 -171.67 353.47)" stroke="#f55">
   <path d="m200.67 104.78-5.3392-10.736" stroke-width="1.3605"/>
   <rect transform="rotate(-26.167)" x="121.89" y="170.01" width="23.947" height="13.048" ry="6.5239" stroke-width="1.2626"/>
  </g>
  <g transform="rotate(15.647 92.818 181.97)" stroke="#f55" stroke-width="1.263">
   <circle cx="249.61" cy="98.113" r="7.4845"/>
   <path d="m254.89 98.397-10.546-0.65585"/>
  </g>
  <g transform="rotate(55.668 161.6 101.74)" stroke="#f55">
   <path d="m200.67 104.78-5.3392-10.736" stroke-width="1.3605"/>
   <rect transform="rotate(-26.167)" x="121.89" y="170.01" width="23.947" height="13.048" ry="6.5239" stroke-width="1.263"/>
  </g>
  <g transform="rotate(15.647 222.44 -124.81)" stroke="#f55" stroke-width="1.263">
   <circle cx="249.61" cy="98.113" r="7.4845"/>
   <path d="m254.89 98.397-10.546-0.65585"/>
  </g>
  <g transform="rotate(2.8562 41.88 1628.2)" stroke="#f55">
   <path d="m200.67 104.78-5.3392-10.736" stroke-width="1.3605"/>
   <rect transform="rotate(-26.167)" x="121.89" y="170.01" width="23.947" height="13.048" ry="6.5239" stroke-width="1.263"/>
  </g>
  <g transform="rotate(6.0639 -380.91 -31.3)" stroke="#f55">
   <path d="m200.67 104.78-5.3392-10.736" stroke-width="1.3605"/>
   <rect transform="rotate(-26.167)" x="121.89" y="170.01" width="23.947" height="13.048" ry="6.5239" stroke-width="1.2626"/>
  </g>
  <g transform="rotate(-24.661 422.18 106.02)" stroke="#f55" stroke-width="1.263">
   <circle cx="249.61" cy="98.113" r="7.4845"/>
   <path d="m254.89 98.397-10.546-0.65585"/>
  </g>
  <g transform="rotate(12.194 -120.77 -22.292)" stroke="#f55" stroke-width="1.263">
   <circle cx="249.61" cy="98.113" r="7.4845"/>
   <path d="m254.89 98.397-10.546-0.65585"/>
  </g>
 </g>
</svg>
