<?xml version="1.0" encoding="UTF-8"?>
<!-- Created with Inkscape (http://www.inkscape.org/) -->
<svg width="85" height="85" version="1.1" viewBox="0 0 85 85" xmlns="http://www.w3.org/2000/svg">
 <g transform="translate(-427.54 -298.01)">
  <rect x="427.54" y="298.01" width="85" height="85" rx="0" ry="0" fill="#cbefed" stroke-linecap="square" stroke-width="5.9297" style="paint-order:markers fill stroke"/>
  <path d="m453.02 360.13c-0.69497-0.23789-0.98697-0.62661-1.8509-2.4633-0.91135-1.9374-1.002-2.1966-0.95196-2.7227 0.0829-0.87248 0.4737-1.2922 1.8566-1.9946 1.4758-0.74961 2.4495-1.4295 3.3963-2.3716 0.93201-0.92741 1.4776-1.6956 2.0177-2.8406 0.64888-1.3756 1.113-3.3633 1.2064-5.1674l0.0467-0.91086-3.1708-7.7e-4c-3.1585-7.4e-4 -3.1722-1e-3 -3.5583-0.18162-0.46635-0.21766-0.90026-0.67816-1.0766-1.1429-0.11811-0.3111-0.12768-0.93251-0.10737-7.0081l0.0222-6.6667 0.17167-0.32112c0.0945-0.17662 0.32035-0.44827 0.50183-0.60365 0.61912-0.52996 0.38793-0.51513 7.6662-0.49167 6.3286 0.0204 6.5541 0.0261 6.8515 0.17356 0.39282 0.19479 0.8181 0.62003 1.0129 1.0129 0.14809 0.29865 0.15241 0.49943 0.15113 6.9742 0 6.7418-0.0362 7.8837-0.31545 10.233-0.234 1.9712-0.67783 4.0398-1.1558 5.3876-0.32012 0.90253-1.1426 2.527-1.7098 3.3768-1.8512 2.7737-4.5595 5.1496-7.8253 6.8646-1.7876 0.93873-2.4429 1.1172-3.1783 0.86541zm22.647 7e-3c-0.69684-0.21403-0.98674-0.60907-1.9272-2.626-0.95616-2.0507-1.0327-2.3568-0.76593-3.0646 0.22571-0.59899 0.58948-0.91423 1.6942-1.4684 1.5525-0.77885 2.4886-1.4427 3.5462-2.5146 1.0124-1.0262 1.4184-1.6228 2.0157-2.9617 0.62706-1.4058 1.0138-3.1249 1.1008-4.8932l0.0467-0.94962-3.1708-1e-3c-3.0207-1e-3 -3.1872-9e-3 -3.5196-0.15942-0.42703-0.19307-0.8111-0.55082-1.0339-0.9629-0.16759-0.31003-0.16759-0.31111-0.18871-6.9323-0.0233-7.5358-0.0572-7.1051 0.60535-7.768 0.64397-0.64393 0.28207-0.61629 7.7555-0.5922l6.544 0.0211 0.34884 0.18136c0.46541 0.24196 0.71236 0.4859 0.93713 0.92587l0.18697 0.36564 0.0245 5.6589c0.0315 7.1833-0.077 9.7233-0.53719 12.636-0.69848 4.4189-2.2139 7.4817-5.1398 10.389-1.5652 1.5551-3.2844 2.7851-5.4281 3.8836-1.8635 0.95492-2.3094 1.075-3.0949 0.83381z" fill="#2b8b87" stroke-width=".07752"/>
  <path d="m450.87 289.4c0.78836 0.87383 1.4938 1.7689 2.1211 2.6828 24.254 47.425-31.2 53.031-25.927 91.916 0.31787 2.2121 0.63741 3.5432 0.63741 3.5432" fill="none" opacity=".18091" stroke="#2b8b87" stroke-linecap="square" stroke-width="3" style="paint-order:markers fill stroke"/>
  <path d="m479.94 284.53c0.78836 0.87383 1.4938 1.7689 2.1211 2.6828 34.067 50.172-4.3229 91.729 10.76 131.18 0.31787 2.2121 0.63741 3.5432 0.63741 3.5432" fill="none" opacity=".18091" stroke="#2b8b87" stroke-linecap="square" stroke-width="3" style="paint-order:markers fill stroke"/>
 </g>
</svg>
