<?xml version="1.0" encoding="UTF-8" standalone="no"?>
<!-- Created with Inkscape (http://www.inkscape.org/) -->

<svg
   version="1.1"
   id="svg50211"
   width="85"
   height="85"
   viewBox="0 0 84.999998 84.999997"
   sodipodi:docname="right-quote-sign.png"
   inkscape:version="1.2.2 (732a01da63, 2022-12-09, custom)"
   xmlns:inkscape="http://www.inkscape.org/namespaces/inkscape"
   xmlns:sodipodi="http://sodipodi.sourceforge.net/DTD/sodipodi-0.dtd"
   xmlns="http://www.w3.org/2000/svg"
   xmlns:svg="http://www.w3.org/2000/svg">
  <defs
     id="defs50215" />
  <sodipodi:namedview
     id="namedview50213"
     pagecolor="#ffffff"
     bordercolor="#000000"
     borderopacity="0.25"
     inkscape:showpageshadow="2"
     inkscape:pageopacity="0.0"
     inkscape:pagecheckerboard="0"
     inkscape:deskcolor="#d1d1d1"
     showgrid="false"
     inkscape:zoom="3.6106771"
     inkscape:cx="28.803462"
     inkscape:cy="49.436711"
     inkscape:window-width="1920"
     inkscape:window-height="947"
     inkscape:window-x="0"
     inkscape:window-y="38"
     inkscape:window-maximized="1"
     inkscape:current-layer="g50217"
     inkscape:lockguides="true" />
  <g
     inkscape:groupmode="layer"
     inkscape:label="Image"
     id="g50217"
     transform="translate(-427.53647,-459.25049)">
    <rect
       style="fill:#cbefed;fill-opacity:1;stroke-width:5.92973;stroke-linecap:square;paint-order:markers fill stroke"
       id="rect50223"
       width="85"
       height="85"
       x="427.53647"
       y="298.01303"
       ry="0"
       rx="0" />
    <path
       style="fill:#ff6600;fill-opacity:1;stroke-width:0.0775195"
       d="m 453.01764,360.12622 c -0.69497,-0.23789 -0.98697,-0.62661 -1.85093,-2.46333 -0.91135,-1.93745 -1.00203,-2.19661 -0.95196,-2.72268 0.0829,-0.87248 0.4737,-1.29225 1.85665,-1.99463 1.47585,-0.74961 2.44952,-1.42949 3.39634,-2.37162 0.93201,-0.92741 1.4776,-1.69559 2.01771,-2.84061 0.64888,-1.37563 1.11302,-3.36329 1.20638,-5.1674 l 0.0467,-0.91086 -3.17075,-7.7e-4 c -3.1585,-7.4e-4 -3.17215,-10e-4 -3.55833,-0.18162 -0.46635,-0.21766 -0.90026,-0.67816 -1.0766,-1.14291 -0.11811,-0.3111 -0.12768,-0.93251 -0.10737,-7.00806 l 0.0222,-6.66669 0.17167,-0.32112 c 0.0945,-0.17662 0.32035,-0.44827 0.50183,-0.60365 0.61912,-0.52996 0.38793,-0.51513 7.66622,-0.49167 6.32855,0.0204 6.55414,0.0261 6.85151,0.17356 0.39282,0.19479 0.8181,0.62003 1.01288,1.0129 0.14809,0.29865 0.15241,0.49943 0.15113,6.97419 0,6.74176 -0.0362,7.88367 -0.31545,10.23258 -0.234,1.97121 -0.67783,4.03979 -1.15585,5.38762 -0.32012,0.90253 -1.14265,2.52695 -1.70984,3.37677 -1.85117,2.7737 -4.55954,5.1496 -7.82529,6.86459 -1.78757,0.93873 -2.44287,1.11717 -3.17834,0.86541 z m 22.64657,0.007 c -0.69684,-0.21403 -0.98674,-0.60907 -1.92715,-2.62599 -0.95616,-2.05074 -1.03272,-2.35682 -0.76593,-3.06463 0.22571,-0.59899 0.58948,-0.91423 1.6942,-1.46841 1.55253,-0.77885 2.48862,-1.44267 3.5462,-2.51459 1.01241,-1.02621 1.41843,-1.62275 2.01572,-2.96173 0.62706,-1.40583 1.01382,-3.12488 1.10076,-4.89322 l 0.0467,-0.94962 -3.17075,-0.001 c -3.02067,-10e-4 -3.18721,-0.009 -3.51958,-0.15942 -0.42703,-0.19307 -0.8111,-0.55082 -1.03389,-0.9629 -0.16759,-0.31003 -0.16759,-0.31111 -0.18871,-6.93227 -0.0233,-7.53576 -0.0572,-7.10506 0.60535,-7.76799 0.64397,-0.64393 0.28207,-0.61629 7.7555,-0.5922 l 6.54398,0.0211 0.34884,0.18136 c 0.46541,0.24196 0.71236,0.4859 0.93713,0.92587 l 0.18697,0.36564 0.0245,5.65894 c 0.0315,7.18328 -0.077,9.72332 -0.53719,12.63568 -0.69848,4.41886 -2.21389,7.48166 -5.13979,10.38868 -1.56525,1.55507 -3.28443,2.78509 -5.42806,3.88361 -1.86354,0.95492 -2.30936,1.07505 -3.0949,0.83381 z"
       id="path50221" />
    <path
       style="opacity:0.180911;fill:none;fill-opacity:1;stroke:#2b8b87;stroke-width:3;stroke-linecap:square;stroke-dasharray:none;stroke-opacity:1;paint-order:markers fill stroke"
       d="m 450.86786,289.39896 c 0.78836,0.87383 1.49379,1.76894 2.1211,2.68284 24.25413,47.42516 -31.20028,53.03068 -25.9268,91.91558 0.31787,2.21214 0.63741,3.54317 0.63741,3.54317"
       id="path52263"
       sodipodi:nodetypes="cccc" />
    <path
       style="opacity:0.180911;fill:none;fill-opacity:1;stroke:#2b8b87;stroke-width:3;stroke-linecap:square;stroke-dasharray:none;stroke-opacity:1;paint-order:markers fill stroke"
       d="m 479.93645,284.52898 c 0.78836,0.87383 1.49379,1.76894 2.1211,2.68284 34.06719,50.17169 -4.3229,91.72907 10.76045,131.18353 0.31787,2.21214 0.63741,3.54317 0.63741,3.54317"
       id="path53963"
       sodipodi:nodetypes="cccc" />
    <rect
       style="fill:#d7d7f4;fill-opacity:1;stroke-width:5.92973;stroke-linecap:square;paint-order:markers fill stroke"
       id="rect61341"
       width="85"
       height="85"
       x="427.53647"
       y="459.25049"
       ry="0"
       rx="0" />
    <path
       style="opacity:0.180911;fill:none;fill-opacity:1;stroke:#9292fa;stroke-width:3;stroke-linecap:square;stroke-dasharray:none;stroke-opacity:1;paint-order:markers fill stroke"
       d="m 439.36886,444.30018 c 0.78836,0.87383 1.49379,1.76894 2.1211,2.68284 4.63132,60.3222 -27.7878,66.11769 -22.40937,104.93361 0.31787,2.21214 0.63741,3.54317 0.63741,3.54317"
       id="path61345"
       sodipodi:nodetypes="cccc" />
    <g
       id="g66690"
       transform="matrix(0.42422755,-0.13857627,0.13857627,0.42422755,165.28246,366.95254)"
       style="fill:#ffffff" />
    <path
       style="opacity:0.180911;fill:none;fill-opacity:1;stroke:#9292fa;stroke-width:3;stroke-linecap:square;stroke-dasharray:none;stroke-opacity:1;paint-order:markers fill stroke"
       d="m 537.06504,485.42678 c 0.61249,1.00496 1.13952,2.01545 1.58631,3.02991 -6.64515,60.13367 -91.73859,24.50066 -93.65798,63.64039 -0.0982,2.2327 -0.0313,3.59992 -0.0313,3.59992"
       id="path67430"
       sodipodi:nodetypes="cccc" />
    <g
       id="g69690"
       transform="matrix(1.0387146,0,0,1.0387146,-17.146387,-19.439158)">
      <g
         id="g67437"
         transform="matrix(1.1832336,0,0,1.1832336,-85.94108,-92.004249)">
        <g
           id="g64710"
           transform="matrix(0.78252953,0,0,0.78252953,97.000201,109.88965)">
          <g
             id="path61399">
            <path
               id="path66695"
               style="color:#000000;fill:#8080ff;stroke-width:3.24972;stroke-linecap:round;stroke-linejoin:round;-inkscape-stroke:none;paint-order:markers fill stroke"
               d="m 467.99494,491.5928 c -9.21291,0 -16.71512,7.49971 -16.71512,16.71263 0,2.4636 0.62141,4.77057 1.58241,6.88123 l -5.05672,7.28556 a 1.6250213,1.6250213 0 0 0 1.33781,2.55083 h 18.85162 c 9.21292,0 16.71513,-7.5047 16.71513,-16.71762 0,-9.21292 -7.50221,-16.71263 -16.71513,-16.71263 z m -0.0574,5.94776 c 0.80812,0.006 1.52951,0.19217 2.32619,0.58903 0.59504,0.2965 0.82085,0.46758 1.35278,1.01085 1.05982,1.08239 1.52517,2.21197 1.51502,3.68147 -0.007,0.98677 -0.14246,1.54441 -0.59153,2.44349 -0.39427,0.78928 -1.26379,1.68787 -2.11404,2.18642 -0.30385,0.17815 -0.66086,0.45627 -0.78122,0.60401 l -0.22463,0.27705 -0.0325,1.36776 -0.0374,1.41768 -1.52999,-0.01 -1.53249,-0.0125 0.01,-1.41519 c 0.0117,-1.56689 0.13105,-2.19464 0.56907,-3.00757 0.34291,-0.63629 1.10245,-1.36816 1.86445,-1.79955 0.41535,-0.23515 0.69798,-0.45916 0.87606,-0.68888 0.87137,-1.12371 0.51963,-2.67232 -0.76874,-3.36948 -0.21648,-0.11714 -0.57672,-0.17952 -0.93597,-0.1822 -0.35924,-0.003 -0.71784,0.0533 -0.93596,0.16723 -0.70363,0.36726 -1.1653,0.98014 -1.26543,1.67226 l -0.0524,0.3669 -1.53498,-0.0125 -1.53998,-0.01 0.0574,-0.57405 c 0.25404,-2.52849 2.39835,-4.56142 4.95438,-4.69482 0.1194,-0.006 0.23648,-0.008 0.35193,-0.007 z m -1.67227,16.47801 1.53749,0.0125 1.53498,0.0125 -0.01,1.53748 -0.0125,1.53748 -1.53499,-0.01 -1.53748,-0.0125 0.01,-1.53748 z" />
          </g>
        </g>
        <g
           id="g64719"
           transform="matrix(-0.78252953,0,0,0.78252953,841.05023,98.80862)">
          <path
             id="path64717"
             style="color:#000000;fill:#8080ff;stroke-linecap:round;stroke-linejoin:round;-inkscape-stroke:none;paint-order:markers fill stroke"
             d="m 467.99613,491.59152 c 7.54695,0 13.94138,5.03555 16.00878,11.92047 a 19.042933,19.042933 0 0 0 -1.1007,-0.0874 19.042933,19.042933 0 0 0 -2.29623,0.14476 c -1.91102,-5.10665 -6.82449,-8.7282 -12.61185,-8.7282 -7.45663,0 -13.46794,6.0088 -13.46794,13.46544 0,2.29839 0.5724,4.45066 1.58241,6.33962 a 1.6250225,1.6250225 0 0 1 -0.0973,1.69472 l -3.76633,5.4336 h 11.63095 a 19.042933,19.042933 0 0 0 -0.0175,0.69387 19.042933,19.042933 0 0 0 0.20217,2.55581 h -14.92056 a 1.6250225,1.6250225 0 0 1 -1.33531,-2.55082 l 5.05422,-7.28806 c -0.961,-2.11066 -1.58241,-4.41513 -1.58241,-6.87874 0,-9.21292 7.50471,-16.71512 16.71762,-16.71512 z" />
        </g>
      </g>
      <g
         id="g69678"
         transform="matrix(0.60102904,0,0,0.60102904,189.23479,197.38119)">
        <circle
           style="opacity:1;fill:#8080ff;fill-opacity:1;stroke:none;stroke-width:2.543;stroke-linecap:round;stroke-linejoin:round;stroke-dasharray:none;stroke-opacity:1;paint-order:markers fill stroke"
           id="path69669"
           cx="476.76001"
           cy="495.55939"
           r="3.381927" />
        <circle
           style="opacity:1;fill:#8080ff;fill-opacity:1;stroke:none;stroke-width:2.543;stroke-linecap:round;stroke-linejoin:round;stroke-dasharray:none;stroke-opacity:1;paint-order:markers fill stroke"
           id="circle69671"
           cx="466.98822"
           cy="495.55939"
           r="3.381927" />
        <circle
           style="opacity:1;fill:#8080ff;fill-opacity:1;stroke:none;stroke-width:2.543;stroke-linecap:round;stroke-linejoin:round;stroke-dasharray:none;stroke-opacity:1;paint-order:markers fill stroke"
           id="circle69673"
           cx="486.5318"
           cy="495.55939"
           r="3.381927" />
      </g>
    </g>
  </g>
</svg>
