<?xml version="1.0" encoding="UTF-8"?>
<!-- Created with Inkscape (http://www.inkscape.org/) -->
<svg width="94.327mm" height="94.327mm" version="1.1" viewBox="0 0 94.327 94.327" xmlns="http://www.w3.org/2000/svg">
 <g transform="translate(-311.9 -82.604)">
  <rect x="181.08" y="82.604" width="94.327" height="94.327" ry="0" fill="none"/>
  <rect x="52.722" y="82.014" width="94.327" height="94.327" ry="1.078" fill="none"/>
  <g transform="rotate(-16.553 101.89 141.3)" fill="none" stroke="#f60">
   <rect x="77.278" y="96.931" width="16.304" height="16.304" ry="8.152" stroke-width="1.5778"/>
   <g stroke-width="1.3682">
    <path d="m90.342 105.07a4.9114 4.9114 0 0 1-2.4487 4.2614 4.9114 4.9114 0 0 1-4.9148 6e-3 4.9114 4.9114 0 0 1-2.4592-4.2554"/>
    <path d="m83.404 101.23v3.3084"/>
    <path d="m87.457 101.23v3.3084"/>
   </g>
  </g>
  <g transform="rotate(14.571 110.75 87.434)" fill="none" stroke="#f60">
   <rect x="102.83" y="96.931" width="16.304" height="16.304" ry="8.152" stroke-width="1.5778"/>
   <g stroke-width="1.3682">
    <path transform="scale(1,-1)" d="m115.89-111.69a4.9114 4.9114 0 0 1-2.4487 4.2614 4.9114 4.9114 0 0 1-4.9148 6e-3 4.9114 4.9114 0 0 1-2.4592-4.2554"/>
    <path d="m108.95 101.23v3.3084"/>
    <path d="m113 101.23v3.3084"/>
   </g>
  </g>
  <g transform="rotate(-14.537 112.67 114.11)" fill="none" stroke="#f60">
   <rect x="77.278" y="121.07" width="16.304" height="16.304" ry="8.152" stroke-width="1.5778"/>
   <g stroke-width="1.3682">
    <path d="m83.404 125.36v3.3084"/>
    <path d="m87.457 125.36v3.3084"/>
    <path d="m91.427 131.05h-11.717"/>
   </g>
  </g>
  <g transform="rotate(23.424 112.24 149.12)" fill="none" stroke="#f60">
   <rect x="102.83" y="121.07" width="16.304" height="16.304" ry="8.152" stroke-width="1.5778"/>
   <g stroke-width="1.3682">
    <path d="m107.3 127.01h3.3084"/>
    <path d="m114.66 127.01h-3.3084"/>
    <path d="m118.76 130.99h-14.983"/>
   </g>
  </g>
  <g transform="rotate(27.987 -.34316 214.07)" fill="none" stroke="#f60">
   <rect x="77.278" y="96.931" width="16.304" height="16.304" ry="8.152" stroke-width="1.5778"/>
   <g stroke-width="1.3682">
    <path d="m90.342 105.07a4.9114 4.9114 0 0 1-2.4487 4.2614 4.9114 4.9114 0 0 1-4.9148 6e-3 4.9114 4.9114 0 0 1-2.4592-4.2554"/>
    <path d="m83.404 101.23v3.3084"/>
    <path d="m87.457 101.23v3.3084"/>
   </g>
  </g>
  <g transform="rotate(20.818 117.28 241.42)" fill="none" stroke="#f60">
   <rect x="77.278" y="96.931" width="16.304" height="16.304" ry="8.152" stroke-width="1.5778"/>
   <g stroke-width="1.3682">
    <path d="m90.342 105.07a4.9114 4.9114 0 0 1-2.4487 4.2614 4.9114 4.9114 0 0 1-4.9148 6e-3 4.9114 4.9114 0 0 1-2.4592-4.2554"/>
    <path d="m83.404 101.23v3.3084"/>
    <path d="m87.457 101.23v3.3084"/>
   </g>
  </g>
  <g transform="rotate(-23.808 158.7 239.59)" fill="none" stroke="#f60">
   <rect x="102.83" y="96.931" width="16.304" height="16.304" ry="8.152" stroke-width="1.5778"/>
   <g stroke-width="1.3682">
    <path transform="scale(1,-1)" d="m115.89-111.69a4.9114 4.9114 0 0 1-2.4487 4.2614 4.9114 4.9114 0 0 1-4.9148 6e-3 4.9114 4.9114 0 0 1-2.4592-4.2554"/>
    <path d="m108.95 101.23v3.3084"/>
    <path d="m113 101.23v3.3084"/>
   </g>
  </g>
  <g transform="rotate(-23.808 215.77 47.747)" fill="none" stroke="#f60">
   <rect x="102.83" y="96.931" width="16.304" height="16.304" ry="8.152" stroke-width="1.5778"/>
   <g stroke-width="1.3682">
    <path transform="scale(1,-1)" d="m115.89-111.69a4.9114 4.9114 0 0 1-2.4487 4.2614 4.9114 4.9114 0 0 1-4.9148 6e-3 4.9114 4.9114 0 0 1-2.4592-4.2554"/>
    <path d="m108.95 101.23v3.3084"/>
    <path d="m113 101.23v3.3084"/>
   </g>
  </g>
  <g fill="none" stroke="#f60">
   <rect transform="rotate(23.424)" x="101.19" y="39.42" width="16.304" height="16.304" ry="8.152" stroke-width="1.5778"/>
   <g stroke-width="1.3682">
    <path d="m78.919 83.635 3.0358 1.3152"/>
    <path d="m85.674 86.561-3.0358-1.3152"/>
    <path d="m87.854 91.84-13.748-5.9562"/>
   </g>
  </g>
  <g transform="rotate(-18.029 197.56 283.5)" fill="none" stroke="#f60">
   <rect x="102.83" y="121.07" width="16.304" height="16.304" ry="8.152" stroke-width="1.5778"/>
   <g stroke-width="1.3682">
    <path d="m107.3 127.01h3.3084"/>
    <path d="m114.66 127.01h-3.3084"/>
    <path d="m118.76 130.99h-14.983"/>
   </g>
  </g>
  <g fill="none" stroke="#f60">
   <rect transform="rotate(-14.537)" x="87.424" y="103.06" width="16.304" height="16.304" ry="8.152" stroke-width="1.5778"/>
   <g stroke-width="1.3682">
    <path d="m117.5 80.441 0.83041 3.2025"/>
    <path d="m121.42 79.423 0.83041 3.2025"/>
    <path d="m126.69 83.931-11.342 2.9409"/>
   </g>
  </g>
  <g transform="translate(20.069 -1.4302)" fill="none" stroke="#f55">
   <path d="m200.67 104.78-5.3392-10.736" stroke-width="1.3605"/>
   <rect transform="rotate(-26.167)" x="121.89" y="170.01" width="23.947" height="13.048" ry="6.5239" stroke-width="1.263"/>
  </g>
  <g transform="rotate(20.818 107.92 12.764)" fill="none" stroke="#f60">
   <rect x="77.278" y="96.931" width="16.304" height="16.304" ry="8.152" stroke-width="1.5778"/>
   <g stroke-width="1.3682">
    <path d="m90.342 105.07a4.9114 4.9114 0 0 1-2.4487 4.2614 4.9114 4.9114 0 0 1-4.9148 6e-3 4.9114 4.9114 0 0 1-2.4592-4.2554"/>
    <path d="m83.404 101.23v3.3084"/>
    <path d="m87.457 101.23v3.3084"/>
   </g>
  </g>
  <g transform="rotate(-8.2857 513.25 214.98)" fill="none" stroke="#f60">
   <rect x="102.83" y="96.931" width="16.304" height="16.304" ry="8.152" stroke-width="1.5778"/>
   <g stroke-width="1.3682">
    <path transform="scale(1,-1)" d="m115.89-111.69a4.9114 4.9114 0 0 1-2.4487 4.2614 4.9114 4.9114 0 0 1-4.9148 6e-3 4.9114 4.9114 0 0 1-2.4592-4.2554"/>
    <path d="m108.95 101.23v3.3084"/>
    <path d="m113 101.23v3.3084"/>
   </g>
  </g>
  <g transform="rotate(62.293 202.76 150.95)" fill="none" stroke="#f55">
   <path d="m200.67 104.78-5.3392-10.736" stroke-width="1.3605"/>
   <rect transform="rotate(-26.167)" x="121.89" y="170.01" width="23.947" height="13.048" ry="6.5239" stroke-width="1.2626"/>
  </g>
  <g transform="translate(-.17531 -.95151)" fill="none" stroke="#f55" stroke-width="1.263">
   <circle cx="249.61" cy="98.113" r="7.4845"/>
   <path d="m254.89 98.397-10.546-0.65585"/>
  </g>
  <g transform="rotate(-25.772 276.32 198.9)" fill="none" stroke="#f55" stroke-width="1.263">
   <circle cx="249.61" cy="98.113" r="7.4845"/>
   <path d="m254.89 98.397-10.546-0.65585"/>
  </g>
  <g transform="rotate(6.0639 -171.67 353.47)" fill="none" stroke="#f55">
   <path d="m200.67 104.78-5.3392-10.736" stroke-width="1.3605"/>
   <rect transform="rotate(-26.167)" x="121.89" y="170.01" width="23.947" height="13.048" ry="6.5239" stroke-width="1.2626"/>
  </g>
  <g transform="rotate(15.647 92.818 181.97)" fill="none" stroke="#f55" stroke-width="1.263">
   <circle cx="249.61" cy="98.113" r="7.4845"/>
   <path d="m254.89 98.397-10.546-0.65585"/>
  </g>
  <g transform="rotate(55.668 161.6 101.74)" fill="none" stroke="#f55">
   <path d="m200.67 104.78-5.3392-10.736" stroke-width="1.3605"/>
   <rect transform="rotate(-26.167)" x="121.89" y="170.01" width="23.947" height="13.048" ry="6.5239" stroke-width="1.263"/>
  </g>
  <g transform="rotate(15.647 222.44 -124.81)" fill="none" stroke="#f55" stroke-width="1.263">
   <circle cx="249.61" cy="98.113" r="7.4845"/>
   <path d="m254.89 98.397-10.546-0.65585"/>
  </g>
  <g transform="rotate(2.8562 30.066 1629.2)">
   <g fill="none">
    <rect transform="rotate(-2.8562)" x="230.68" y="82.078" width="94.327" height="94.327" style="paint-order:markers fill stroke"/>
    <path d="m200.67 104.78-5.3392-10.736" stroke="#f55" stroke-width="1.3605"/>
    <rect transform="rotate(-26.167)" x="121.89" y="170.01" width="23.947" height="13.048" ry="6.5239" stroke="#f55" stroke-width="1.263"/>
   </g>
   <g transform="matrix(.80492 -.17254 .17254 .80492 19.824 48.542)">
    <rect transform="rotate(-3.0457)" x="242.96" y="99.169" width="18.502" height="18.502" ry="3.5916" fill="none" stroke="#2b8b87" stroke-width="1.558"/>
    <g transform="translate(-.093145 -.38899)" fill="#2b8b87">
     <g transform="matrix(.90686 0 0 .90686 23.224 10.409)">
      <circle transform="rotate(-2.8562)" cx="248.27" cy="105.53" r="2.0544" style="paint-order:markers fill stroke"/>
      <circle transform="rotate(-2.8562)" cx="248.27" cy="111.1" r="2.0544" style="paint-order:markers fill stroke"/>
     </g>
     <g transform="matrix(.90686 0 0 .90686 23.456 10.397)">
      <circle transform="rotate(-2.8562)" cx="253.37" cy="111.1" r="2.0544" style="paint-order:markers fill stroke"/>
      <circle transform="rotate(-2.8562)" cx="253.37" cy="105.53" r="2.0544" style="paint-order:markers fill stroke"/>
      <circle transform="rotate(-2.8562)" cx="258.64" cy="111.1" r="2.0544" style="paint-order:markers fill stroke"/>
      <circle transform="rotate(-2.8562)" cx="258.64" cy="105.53" r="2.0544" style="paint-order:markers fill stroke"/>
     </g>
    </g>
    <path d="m248.02 90.111 18.072-0.90163" fill="#f55" stroke="#2b8b87" stroke-width="1.558" style="paint-order:markers fill stroke"/>
    <g transform="translate(-.15869 -1.5036)" fill="#f55" stroke="#2b8b87" stroke-linecap="round" stroke-width="1.558">
     <path d="m253.75 83.907 0.1624 3.2548" style="paint-order:markers fill stroke"/>
     <path d="m260.54 83.569 0.1624 3.2548" style="paint-order:markers fill stroke"/>
    </g>
   </g>
   <g transform="translate(-20.254 2.4362)">
    <rect transform="rotate(-19.492)" x="232.09" y="198.17" width="15.231" height="15.231" ry="2.9566" fill="none" stroke="#2b8b87" stroke-width="1.2826"/>
    <g transform="matrix(.78953 -.23306 .23306 .78953 68.968 98.863)" fill="#2b8b87">
     <g transform="matrix(.90686 0 0 .90686 23.224 10.409)">
      <circle transform="rotate(-2.8562)" cx="248.27" cy="105.53" r="2.0544" style="paint-order:markers fill stroke"/>
      <circle transform="rotate(-2.8562)" cx="248.27" cy="111.1" r="2.0544" style="paint-order:markers fill stroke"/>
     </g>
     <g transform="matrix(.90686 0 0 .90686 23.456 10.397)">
      <circle transform="rotate(-2.8562)" cx="253.37" cy="111.1" r="2.0544" style="paint-order:markers fill stroke"/>
      <circle transform="rotate(-2.8562)" cx="253.37" cy="105.53" r="2.0544" style="paint-order:markers fill stroke"/>
      <circle transform="rotate(-2.8562)" cx="258.64" cy="111.1" r="2.0544" style="paint-order:markers fill stroke"/>
      <circle transform="rotate(-2.8562)" cx="258.64" cy="105.53" r="2.0544" style="paint-order:markers fill stroke"/>
     </g>
    </g>
    <path d="m285.96 112.49 14.058-4.9237" fill="#f55" stroke="#2b8b87" stroke-width="1.2826" style="paint-order:markers fill stroke"/>
    <g transform="matrix(.78953 -.23306 .23306 .78953 68.657 97.998)" fill="#f55" stroke="#2b8b87" stroke-linecap="round" stroke-width="1.558">
     <path d="m253.75 83.907 0.1624 3.2548" style="paint-order:markers fill stroke"/>
     <path d="m260.54 83.569 0.1624 3.2548" style="paint-order:markers fill stroke"/>
    </g>
   </g>
   <g transform="rotate(15.522 279.57 157.04)">
    <g transform="translate(2.3235 -2.0504)" fill="none" stroke="#2b8b87" stroke-width="1.2826">
     <rect transform="rotate(-3.0457)" x="237.19" y="100.76" width="15.231" height="15.231" ry="2.9566"/>
     <path d="m245.17 95.515 2.4494 2.7775 7.4497-5.1044" style="paint-order:markers fill stroke"/>
    </g>
   </g>
   <g transform="translate(-19.525 -1.0529)">
    <rect transform="rotate(16.706)" x="319.1" y="-22.377" width="15.231" height="15.231" ry="2.9566" fill="none" stroke="#2b8b87" stroke-width="1.2826"/>
    <g transform="matrix(.77477 .2782 -.2782 .77477 144.01 -65.713)" fill="#2b8b87">
     <g transform="matrix(.90686 0 0 .90686 23.224 10.409)">
      <circle transform="rotate(-2.8562)" cx="248.27" cy="105.53" r="2.0544" style="paint-order:markers fill stroke"/>
      <circle transform="rotate(-2.8562)" cx="248.27" cy="111.1" r="2.0544" style="paint-order:markers fill stroke"/>
     </g>
     <g transform="matrix(.90686 0 0 .90686 23.456 10.397)">
      <circle transform="rotate(-2.8562)" cx="253.37" cy="111.1" r="2.0544" style="paint-order:markers fill stroke"/>
      <circle transform="rotate(-2.8562)" cx="253.37" cy="105.53" r="2.0544" style="paint-order:markers fill stroke"/>
      <circle transform="rotate(-2.8562)" cx="258.64" cy="111.1" r="2.0544" style="paint-order:markers fill stroke"/>
      <circle transform="rotate(-2.8562)" cx="258.64" cy="105.53" r="2.0544" style="paint-order:markers fill stroke"/>
     </g>
    </g>
    <path d="m311.07 73.431 14.252 4.3291" fill="#f55" stroke="#2b8b87" stroke-width="1.2826" style="paint-order:markers fill stroke"/>
    <g transform="matrix(.77477 .2782 -.2782 .77477 144.27 -66.595)" fill="#f55" stroke="#2b8b87" stroke-linecap="round" stroke-width="1.558">
     <path d="m253.75 83.907 0.1624 3.2548" style="paint-order:markers fill stroke"/>
     <path d="m260.54 83.569 0.1624 3.2548" style="paint-order:markers fill stroke"/>
    </g>
   </g>
   <g>
    <g transform="rotate(-32.637 280.26 115.08)" stroke="#2b8b87">
     <g transform="translate(2.3235 -2.0504)" fill="none" stroke="#2b8b87" stroke-width="1.2826">
      <rect transform="rotate(-3.0457)" x="237.19" y="100.76" width="15.231" height="15.231" ry="2.9566"/>
      <path d="m245.17 95.515 2.4494 2.7775 7.4497-5.1044" style="paint-order:markers fill stroke"/>
     </g>
    </g>
    <g transform="rotate(19.817 225.61 251.93)" stroke="#3d9693">
     <g transform="translate(2.3235 -2.0504)" fill="none" stroke="#3d9693" stroke-width="1.2826">
      <rect transform="rotate(-3.0457)" x="237.19" y="100.76" width="15.231" height="15.231" ry="2.9566"/>
      <path d="m245.17 95.515 2.4494 2.7775 7.4497-5.1044" style="paint-order:markers fill stroke"/>
     </g>
    </g>
    <g transform="rotate(-23.036 443.2 -29.919)" stroke="#2b8b87">
     <g transform="translate(2.3235 -2.0504)" fill="none" stroke="#2b8b87" stroke-width="1.2826">
      <rect transform="rotate(-3.0457)" x="237.19" y="100.76" width="15.231" height="15.231" ry="2.9566"/>
      <path d="m245.17 95.515 2.4494 2.7775 7.4497-5.1044" style="paint-order:markers fill stroke"/>
     </g>
    </g>
   </g>
   <g transform="translate(7.1521 -1.4165)">
    <rect transform="rotate(-20.154)" x="174.05" y="206.64" width="15.231" height="15.231" ry="2.9566" fill="none" stroke="#2b8b87" stroke-width="1.2826"/>
    <g transform="matrix(.78678 -.24217 .24217 .78678 18.536 126.01)" fill="#2b8b87">
     <g transform="matrix(.90686 0 0 .90686 23.224 10.409)">
      <circle transform="rotate(-2.8562)" cx="248.27" cy="105.53" r="2.0544" style="paint-order:markers fill stroke"/>
      <circle transform="rotate(-2.8562)" cx="248.27" cy="111.1" r="2.0544" style="paint-order:markers fill stroke"/>
     </g>
     <g transform="matrix(.90686 0 0 .90686 23.456 10.397)">
      <circle transform="rotate(-2.8562)" cx="253.37" cy="111.1" r="2.0544" style="paint-order:markers fill stroke"/>
      <circle transform="rotate(-2.8562)" cx="253.37" cy="105.53" r="2.0544" style="paint-order:markers fill stroke"/>
      <circle transform="rotate(-2.8562)" cx="258.64" cy="111.1" r="2.0544" style="paint-order:markers fill stroke"/>
      <circle transform="rotate(-2.8562)" cx="258.64" cy="105.53" r="2.0544" style="paint-order:markers fill stroke"/>
     </g>
    </g>
    <path d="m235.67 137.13 14-5.086" fill="#f55" stroke="#2b8b87" stroke-width="1.2826" style="paint-order:markers fill stroke"/>
    <g transform="matrix(.78678 -.24217 .24217 .78678 18.215 125.15)" fill="#f55" stroke="#2b8b87" stroke-linecap="round" stroke-width="1.558">
     <path d="m253.75 83.907 0.1624 3.2548" style="paint-order:markers fill stroke"/>
     <path d="m260.54 83.569 0.1624 3.2548" style="paint-order:markers fill stroke"/>
    </g>
   </g>
   <g transform="matrix(.80216 .18494 -.18494 .80216 98.341 18.822)">
    <rect transform="rotate(-3.0457)" x="242.96" y="99.169" width="18.502" height="18.502" ry="3.5916" fill="none" stroke="#2b8b87" stroke-width="1.558"/>
    <g transform="translate(-.093145 -.38899)" fill="#2b8b87">
     <g transform="matrix(.90686 0 0 .90686 23.224 10.409)">
      <circle transform="rotate(-2.8562)" cx="248.27" cy="105.53" r="2.0544" style="paint-order:markers fill stroke"/>
      <circle transform="rotate(-2.8562)" cx="248.27" cy="111.1" r="2.0544" style="paint-order:markers fill stroke"/>
     </g>
     <g transform="matrix(.90686 0 0 .90686 23.456 10.397)">
      <circle transform="rotate(-2.8562)" cx="253.37" cy="111.1" r="2.0544" style="paint-order:markers fill stroke"/>
      <circle transform="rotate(-2.8562)" cx="253.37" cy="105.53" r="2.0544" style="paint-order:markers fill stroke"/>
      <circle transform="rotate(-2.8562)" cx="258.64" cy="111.1" r="2.0544" style="paint-order:markers fill stroke"/>
      <circle transform="rotate(-2.8562)" cx="258.64" cy="105.53" r="2.0544" style="paint-order:markers fill stroke"/>
     </g>
    </g>
    <path d="m248.02 90.111 18.072-0.90163" fill="#f55" stroke="#2b8b87" stroke-width="1.558" style="paint-order:markers fill stroke"/>
    <g transform="translate(-.15869 -1.5036)" fill="#f55" stroke="#2b8b87" stroke-linecap="round" stroke-width="1.558">
     <path d="m253.75 83.907 0.1624 3.2548" style="paint-order:markers fill stroke"/>
     <path d="m260.54 83.569 0.1624 3.2548" style="paint-order:markers fill stroke"/>
    </g>
   </g>
   <g transform="rotate(19.817 62.253 145.74)" stroke="#3f9794">
    <g transform="translate(2.3235 -2.0504)" fill="none" stroke="#3f9794" stroke-width="1.2826">
     <rect transform="rotate(-3.0457)" x="237.19" y="100.76" width="15.231" height="15.231" ry="2.9566"/>
     <path d="m245.17 95.515 2.4494 2.7775 7.4497-5.1044" style="paint-order:markers fill stroke"/>
    </g>
   </g>
   <g transform="rotate(-11.044 257.25 -266.22)" stroke="#2b8b87">
    <g transform="translate(2.3235 -2.0504)" fill="none" stroke="#2b8b87" stroke-width="1.2826">
     <rect transform="rotate(-3.0457)" x="237.19" y="100.76" width="15.231" height="15.231" ry="2.9566"/>
     <path d="m245.17 95.515 2.4494 2.7775 7.4497-5.1044" style="paint-order:markers fill stroke"/>
    </g>
   </g>
   <g transform="rotate(36.586 286.55 168.73)">
    <rect transform="rotate(-19.492)" x="232.09" y="198.17" width="15.231" height="15.231" ry="2.9566" fill="none" stroke="#2b8b87" stroke-width="1.2826"/>
    <g transform="matrix(.78953 -.23306 .23306 .78953 68.968 98.863)" fill="#2b8b87">
     <g transform="matrix(.90686 0 0 .90686 23.224 10.409)">
      <circle transform="rotate(-2.8562)" cx="248.27" cy="105.53" r="2.0544" style="paint-order:markers fill stroke"/>
      <circle transform="rotate(-2.8562)" cx="248.27" cy="111.1" r="2.0544" style="paint-order:markers fill stroke"/>
     </g>
     <g transform="matrix(.90686 0 0 .90686 23.456 10.397)">
      <circle transform="rotate(-2.8562)" cx="253.37" cy="111.1" r="2.0544" style="paint-order:markers fill stroke"/>
      <circle transform="rotate(-2.8562)" cx="253.37" cy="105.53" r="2.0544" style="paint-order:markers fill stroke"/>
      <circle transform="rotate(-2.8562)" cx="258.64" cy="111.1" r="2.0544" style="paint-order:markers fill stroke"/>
      <circle transform="rotate(-2.8562)" cx="258.64" cy="105.53" r="2.0544" style="paint-order:markers fill stroke"/>
     </g>
    </g>
    <path d="m285.96 112.49 14.058-4.9237" fill="#f55" stroke="#2b8b87" stroke-width="1.2826" style="paint-order:markers fill stroke"/>
    <g transform="matrix(.78953 -.23306 .23306 .78953 68.657 97.998)" fill="#f55" stroke="#2b8b87" stroke-linecap="round" stroke-width="1.558">
     <path d="m253.75 83.907 0.1624 3.2548" style="paint-order:markers fill stroke"/>
     <path d="m260.54 83.569 0.1624 3.2548" style="paint-order:markers fill stroke"/>
    </g>
   </g>
  </g>
  <g transform="rotate(6.0639 -380.91 -31.3)" fill="none" stroke="#f55">
   <path d="m200.67 104.78-5.3392-10.736" stroke-width="1.3605"/>
   <rect transform="rotate(-26.167)" x="121.89" y="170.01" width="23.947" height="13.048" ry="6.5239" stroke-width="1.2626"/>
  </g>
  <g transform="rotate(-24.661 422.18 106.02)" fill="none" stroke="#f55" stroke-width="1.263">
   <circle cx="249.61" cy="98.113" r="7.4845"/>
   <path d="m254.89 98.397-10.546-0.65585"/>
  </g>
  <g transform="rotate(12.194 -120.77 -22.292)" fill="none" stroke="#f55" stroke-width="1.263">
   <circle cx="249.61" cy="98.113" r="7.4845"/>
   <path d="m254.89 98.397-10.546-0.65585"/>
  </g>
 </g>
</svg>
